STARTFONT 2.1
COMMENT
COMMENT Converted from TrueType font "BOOKOS.ttf" by "ttf2bdf 2.6".
COMMENT
FONT -FreeType-Bookman Old Style-Medium-R-Normal--14-100-100-100-P-77-ISO10646-1
SIZE 10 100 100
FONTBOUNDINGBOX 21 21 -2 -5
STARTPROPERTIES 21
FOUNDRY "FreeType"
FAMILY_NAME "Bookman Old Style"
WEIGHT_NAME "Medium"
SLANT "R"
SETWIDTH_NAME "Normal"
ADD_STYLE_NAME ""
PIXEL_SIZE 14
POINT_SIZE 100
RESOLUTION_X 100
RESOLUTION_Y 100
SPACING "P"
AVERAGE_WIDTH 77
CHARSET_REGISTRY "ISO10646"
CHARSET_ENCODING "1"
FONT_ASCENT 13
FONT_DESCENT 3
COPYRIGHT "Digitized data copyright The Monotype Corporation 1991-1995. All rights reserved. Bookman Old Style" is a trademark of The Monotype Corporation which may be registered in certain jurisdictions."
_TTF_FONTFILE "BOOKOS.ttf"
_TTF_PSNAME "BookmanOldStyle"
_XFREE86_GLYPH_RANGES "32_126 160_383 402 506_511 710_711 713 728_733 894 900_906 908 910_929 931_974 1025_1036 1038_1103 1105_1116 1118_1119 1168_1169 7808_7813 7922_7923 8211_8213 8215_8222 8224_8226 8230 8240 8242_8243 8249_8250 8252 8254 8260 8319 8355_8356 8359 8364 8453 8467 8470 8482 8486 8494 8539_8542 8592_8597 8616 8706 8710 8719 8721_8722 8725 8729_8730 8734_8735 8745 8747 8776 8800_8801 8804_8805 8962 8976 8992_8993 9472 9474 9484 9488 9492 9496 9500 9508 9516 9524 9532 9552_9580 9600 9604 9608"
_XFREE86_GLYPH_RANGES "9612 9616_9619 9632_9633 9642_9644 9650 9658 9660 9668 9674_9675 9679 9688_9689 9702 9786_9788 9792 9794 9824 9827 9829_9830 9834_9835 61440_61449 61696_61704 64257_64258"
ENDPROPERTIES
CHARS 671
STARTCHAR 0020
ENCODING 32
SWIDTH 288 0
DWIDTH 4 0
BBX 1 1 0 0
BITMAP
00
ENDCHAR
STARTCHAR 0021
ENCODING 33
SWIDTH 288 0
DWIDTH 4 0
BBX 1 10 1 0
BITMAP
80
80
80
80
80
80
80
00
80
80
ENDCHAR
STARTCHAR 0022
ENCODING 34
SWIDTH 360 0
DWIDTH 5 0
BBX 3 4 1 6
BITMAP
A0
A0
A0
A0
ENDCHAR
STARTCHAR 0023
ENCODING 35
SWIDTH 648 0
DWIDTH 9 0
BBX 7 9 1 0
BITMAP
24
24
24
FE
48
FE
48
48
48
ENDCHAR
STARTCHAR 0024
ENCODING 36
SWIDTH 648 0
DWIDTH 9 0
BBX 7 14 1 -2
BITMAP
10
10
7C
94
92
50
38
14
92
92
D6
BC
10
10
ENDCHAR
STARTCHAR 0025
ENCODING 37
SWIDTH 1008 0
DWIDTH 14 0
BBX 13 10 0 0
BITMAP
7040
8880
8880
8900
7200
0270
0488
0888
0888
1070
ENDCHAR
STARTCHAR 0026
ENCODING 38
SWIDTH 792 0
DWIDTH 11 0
BBX 10 10 1 0
BITMAP
3800
4400
4400
7F80
4900
8500
8600
8280
8740
7980
ENDCHAR
STARTCHAR 0027
ENCODING 39
SWIDTH 216 0
DWIDTH 3 0
BBX 1 4 1 6
BITMAP
80
80
80
80
ENDCHAR
STARTCHAR 0028
ENCODING 40
SWIDTH 288 0
DWIDTH 4 0
BBX 2 13 1 -3
BITMAP
40
80
80
80
80
80
80
80
80
80
80
80
40
ENDCHAR
STARTCHAR 0029
ENCODING 41
SWIDTH 288 0
DWIDTH 4 0
BBX 2 13 1 -3
BITMAP
80
40
40
40
40
40
40
40
40
40
40
40
80
ENDCHAR
STARTCHAR 002A
ENCODING 42
SWIDTH 432 0
DWIDTH 6 0
BBX 5 5 0 5
BITMAP
20
20
F8
20
50
ENDCHAR
STARTCHAR 002B
ENCODING 43
SWIDTH 576 0
DWIDTH 8 0
BBX 7 7 1 1
BITMAP
10
10
10
FE
10
10
10
ENDCHAR
STARTCHAR 002C
ENCODING 44
SWIDTH 288 0
DWIDTH 4 0
BBX 2 4 2 -2
BITMAP
C0
C0
40
80
ENDCHAR
STARTCHAR 002D
ENCODING 45
SWIDTH 432 0
DWIDTH 6 0
BBX 4 1 1 3
BITMAP
F0
ENDCHAR
STARTCHAR 002E
ENCODING 46
SWIDTH 288 0
DWIDTH 4 0
BBX 1 2 2 0
BITMAP
80
80
ENDCHAR
STARTCHAR 002F
ENCODING 47
SWIDTH 576 0
DWIDTH 8 0
BBX 5 13 1 -3
BITMAP
08
08
08
10
10
20
20
20
40
40
40
80
80
ENDCHAR
STARTCHAR 0030
ENCODING 48
SWIDTH 648 0
DWIDTH 9 0
BBX 7 10 1 0
BITMAP
38
44
82
82
82
82
82
82
44
38
ENDCHAR
STARTCHAR 0031
ENCODING 49
SWIDTH 648 0
DWIDTH 9 0
BBX 5 10 2 0
BITMAP
20
E0
20
20
20
20
20
20
20
F8
ENDCHAR
STARTCHAR 0032
ENCODING 50
SWIDTH 648 0
DWIDTH 9 0
BBX 7 10 1 0
BITMAP
38
44
82
82
02
04
08
30
42
FC
ENDCHAR
STARTCHAR 0033
ENCODING 51
SWIDTH 648 0
DWIDTH 9 0
BBX 7 10 1 0
BITMAP
38
44
04
08
38
04
02
82
84
78
ENDCHAR
STARTCHAR 0034
ENCODING 52
SWIDTH 648 0
DWIDTH 9 0
BBX 7 10 1 0
BITMAP
08
18
28
28
48
88
FE
08
08
08
ENDCHAR
STARTCHAR 0035
ENCODING 53
SWIDTH 648 0
DWIDTH 9 0
BBX 7 10 1 0
BITMAP
7C
40
40
40
78
04
02
82
84
78
ENDCHAR
STARTCHAR 0036
ENCODING 54
SWIDTH 648 0
DWIDTH 9 0
BBX 7 10 1 0
BITMAP
1C
60
40
B8
C4
82
82
82
44
38
ENDCHAR
STARTCHAR 0037
ENCODING 55
SWIDTH 648 0
DWIDTH 9 0
BBX 8 10 0 0
BITMAP
7F
82
84
04
08
10
10
10
20
20
ENDCHAR
STARTCHAR 0038
ENCODING 56
SWIDTH 648 0
DWIDTH 9 0
BBX 8 10 0 0
BITMAP
18
24
42
62
3C
46
81
81
42
3C
ENDCHAR
STARTCHAR 0039
ENCODING 57
SWIDTH 648 0
DWIDTH 9 0
BBX 7 10 1 0
BITMAP
38
44
82
82
82
46
3A
04
0C
70
ENDCHAR
STARTCHAR 003A
ENCODING 58
SWIDTH 288 0
DWIDTH 4 0
BBX 1 7 2 0
BITMAP
80
80
00
00
00
80
80
ENDCHAR
STARTCHAR 003B
ENCODING 59
SWIDTH 288 0
DWIDTH 4 0
BBX 2 9 2 -2
BITMAP
80
80
00
00
00
C0
C0
40
80
ENDCHAR
STARTCHAR 003C
ENCODING 60
SWIDTH 576 0
DWIDTH 8 0
BBX 6 7 1 1
BITMAP
04
18
60
80
60
18
04
ENDCHAR
STARTCHAR 003D
ENCODING 61
SWIDTH 576 0
DWIDTH 8 0
BBX 6 3 1 3
BITMAP
FC
00
FC
ENDCHAR
STARTCHAR 003E
ENCODING 62
SWIDTH 576 0
DWIDTH 8 0
BBX 6 7 1 1
BITMAP
80
60
18
04
18
60
80
ENDCHAR
STARTCHAR 003F
ENCODING 63
SWIDTH 576 0
DWIDTH 8 0
BBX 7 10 0 0
BITMAP
7C
C2
02
02
06
38
20
00
20
20
ENDCHAR
STARTCHAR 0040
ENCODING 64
SWIDTH 792 0
DWIDTH 11 0
BBX 11 13 0 -3
BITMAP
0F00
1080
2040
4420
8B20
9120
9220
9220
9240
4DA0
2040
1080
0F00
ENDCHAR
STARTCHAR 0041
ENCODING 65
SWIDTH 720 0
DWIDTH 10 0
BBX 9 10 0 0
BITMAP
0800
1400
1400
1400
2200
3E00
2200
4100
4100
E380
ENDCHAR
STARTCHAR 0042
ENCODING 66
SWIDTH 720 0
DWIDTH 10 0
BBX 9 10 0 0
BITMAP
FF00
4080
4080
4080
7F00
4080
4080
4080
4080
FF00
ENDCHAR
STARTCHAR 0043
ENCODING 67
SWIDTH 720 0
DWIDTH 10 0
BBX 9 10 1 0
BITMAP
3E80
4180
8080
8000
8000
8000
8000
8080
4100
3E00
ENDCHAR
STARTCHAR 0044
ENCODING 68
SWIDTH 792 0
DWIDTH 11 0
BBX 9 10 1 0
BITMAP
FE00
4100
4080
4080
4080
4080
4080
4080
4100
FE00
ENDCHAR
STARTCHAR 0045
ENCODING 69
SWIDTH 648 0
DWIDTH 9 0
BBX 8 10 1 0
BITMAP
FE
42
49
48
78
48
48
41
42
FE
ENDCHAR
STARTCHAR 0046
ENCODING 70
SWIDTH 648 0
DWIDTH 9 0
BBX 8 10 1 0
BITMAP
FE
43
49
48
78
48
48
40
40
E0
ENDCHAR
STARTCHAR 0047
ENCODING 71
SWIDTH 792 0
DWIDTH 11 0
BBX 10 10 1 0
BITMAP
3E80
4180
8080
8000
8000
81C0
8080
8080
4180
3E80
ENDCHAR
STARTCHAR 0048
ENCODING 72
SWIDTH 792 0
DWIDTH 11 0
BBX 9 10 1 0
BITMAP
E380
4100
4100
4100
7F00
4100
4100
4100
4100
E380
ENDCHAR
STARTCHAR 0049
ENCODING 73
SWIDTH 360 0
DWIDTH 5 0
BBX 3 10 1 0
BITMAP
E0
40
40
40
40
40
40
40
40
E0
ENDCHAR
STARTCHAR 004A
ENCODING 74
SWIDTH 576 0
DWIDTH 8 0
BBX 7 10 0 0
BITMAP
0E
04
04
04
04
04
84
84
84
78
ENDCHAR
STARTCHAR 004B
ENCODING 75
SWIDTH 720 0
DWIDTH 10 0
BBX 9 10 1 0
BITMAP
E780
4200
4400
4800
5000
6800
4400
4200
4200
E780
ENDCHAR
STARTCHAR 004C
ENCODING 76
SWIDTH 576 0
DWIDTH 8 0
BBX 7 10 1 0
BITMAP
E0
40
40
40
40
40
40
42
44
FC
ENDCHAR
STARTCHAR 004D
ENCODING 77
SWIDTH 936 0
DWIDTH 13 0
BBX 11 10 1 0
BITMAP
E0E0
60C0
60C0
5140
5140
5A40
4A40
4A40
4C40
E4E0
ENDCHAR
STARTCHAR 004E
ENCODING 78
SWIDTH 720 0
DWIDTH 10 0
BBX 8 10 1 0
BITMAP
E7
62
52
52
52
4A
4A
46
46
E2
ENDCHAR
STARTCHAR 004F
ENCODING 79
SWIDTH 792 0
DWIDTH 11 0
BBX 9 10 1 0
BITMAP
3E00
4100
8080
8080
8080
8080
8080
8080
4100
3E00
ENDCHAR
STARTCHAR 0050
ENCODING 80
SWIDTH 648 0
DWIDTH 9 0
BBX 8 10 1 0
BITMAP
FE
41
41
41
41
7E
40
40
40
E0
ENDCHAR
STARTCHAR 0051
ENCODING 81
SWIDTH 792 0
DWIDTH 11 0
BBX 9 12 1 -2
BITMAP
3E00
4100
8080
8080
8080
8080
8080
8080
4100
3E00
0800
0700
ENDCHAR
STARTCHAR 0052
ENCODING 82
SWIDTH 720 0
DWIDTH 10 0
BBX 8 10 1 0
BITMAP
FE
41
41
41
7E
48
48
44
42
E1
ENDCHAR
STARTCHAR 0053
ENCODING 83
SWIDTH 648 0
DWIDTH 9 0
BBX 7 10 1 0
BITMAP
7A
86
82
80
70
0C
02
82
C2
BC
ENDCHAR
STARTCHAR 0054
ENCODING 84
SWIDTH 648 0
DWIDTH 9 0
BBX 9 10 0 0
BITMAP
7F00
C900
8880
0800
0800
0800
0800
0800
0800
1C00
ENDCHAR
STARTCHAR 0055
ENCODING 85
SWIDTH 720 0
DWIDTH 10 0
BBX 9 10 0 0
BITMAP
E380
4100
4100
4100
4100
4100
4100
4100
4100
3E00
ENDCHAR
STARTCHAR 0056
ENCODING 86
SWIDTH 720 0
DWIDTH 10 0
BBX 9 10 1 0
BITMAP
E380
4100
4100
2200
2200
2200
1400
1400
1400
0800
ENDCHAR
STARTCHAR 0057
ENCODING 87
SWIDTH 936 0
DWIDTH 13 0
BBX 14 10 0 0
BITMAP
F39C
4108
2108
2288
2290
1290
1450
1450
1860
0820
ENDCHAR
STARTCHAR 0058
ENCODING 88
SWIDTH 720 0
DWIDTH 10 0
BBX 10 10 0 0
BITMAP
F1C0
2100
1200
1200
0C00
0C00
1200
2200
2100
E3C0
ENDCHAR
STARTCHAR 0059
ENCODING 89
SWIDTH 648 0
DWIDTH 9 0
BBX 9 10 0 0
BITMAP
E380
4100
2200
2200
1400
0800
0800
0800
0800
1C00
ENDCHAR
STARTCHAR 005A
ENCODING 90
SWIDTH 648 0
DWIDTH 9 0
BBX 9 10 0 0
BITMAP
7F00
C200
8200
0400
0800
1000
2000
4080
4100
FF00
ENDCHAR
STARTCHAR 005B
ENCODING 91
SWIDTH 288 0
DWIDTH 4 0
BBX 2 13 1 -3
BITMAP
C0
80
80
80
80
80
80
80
80
80
80
80
C0
ENDCHAR
STARTCHAR 005C
ENCODING 92
SWIDTH 576 0
DWIDTH 8 0
BBX 5 13 2 -3
BITMAP
80
80
80
40
40
40
20
20
20
10
10
10
08
ENDCHAR
STARTCHAR 005D
ENCODING 93
SWIDTH 288 0
DWIDTH 4 0
BBX 2 13 1 -3
BITMAP
C0
40
40
40
40
40
40
40
40
40
40
40
C0
ENDCHAR
STARTCHAR 005E
ENCODING 94
SWIDTH 576 0
DWIDTH 8 0
BBX 5 6 0 4
BITMAP
20
50
50
50
88
88
ENDCHAR
STARTCHAR 005F
ENCODING 95
SWIDTH 504 0
DWIDTH 7 0
BBX 7 1 0 -2
BITMAP
FE
ENDCHAR
STARTCHAR 0060
ENCODING 96
SWIDTH 360 0
DWIDTH 5 0
BBX 3 2 1 8
BITMAP
C0
60
ENDCHAR
STARTCHAR 0061
ENCODING 97
SWIDTH 576 0
DWIDTH 8 0
BBX 7 7 1 0
BITMAP
78
84
3C
44
84
8C
76
ENDCHAR
STARTCHAR 0062
ENCODING 98
SWIDTH 576 0
DWIDTH 8 0
BBX 7 10 0 0
BITMAP
40
C0
40
58
64
42
42
42
64
58
ENDCHAR
STARTCHAR 0063
ENCODING 99
SWIDTH 576 0
DWIDTH 8 0
BBX 6 7 1 0
BITMAP
38
44
80
80
80
44
38
ENDCHAR
STARTCHAR 0064
ENCODING 100
SWIDTH 648 0
DWIDTH 9 0
BBX 7 10 1 0
BITMAP
04
0C
04
34
4C
84
84
84
4C
36
ENDCHAR
STARTCHAR 0065
ENCODING 101
SWIDTH 576 0
DWIDTH 8 0
BBX 6 7 1 0
BITMAP
38
44
FC
80
80
44
38
ENDCHAR
STARTCHAR 0066
ENCODING 102
SWIDTH 288 0
DWIDTH 4 0
BBX 5 10 0 0
BITMAP
38
48
40
E0
40
40
40
40
40
E0
ENDCHAR
STARTCHAR 0067
ENCODING 103
SWIDTH 576 0
DWIDTH 8 0
BBX 7 10 1 -3
BITMAP
7A
84
84
84
78
C0
3C
C2
84
78
ENDCHAR
STARTCHAR 0068
ENCODING 104
SWIDTH 648 0
DWIDTH 9 0
BBX 8 10 0 0
BITMAP
40
C0
40
5C
62
42
42
42
42
E7
ENDCHAR
STARTCHAR 0069
ENCODING 105
SWIDTH 360 0
DWIDTH 5 0
BBX 3 10 1 0
BITMAP
40
40
00
40
C0
40
40
40
40
E0
ENDCHAR
STARTCHAR 006A
ENCODING 106
SWIDTH 288 0
DWIDTH 4 0
BBX 4 13 -1 -3
BITMAP
10
10
00
10
30
10
10
10
10
10
10
90
E0
ENDCHAR
STARTCHAR 006B
ENCODING 107
SWIDTH 648 0
DWIDTH 9 0
BBX 9 10 0 0
BITMAP
4000
C000
4000
4700
4400
5800
6800
4400
4200
E780
ENDCHAR
STARTCHAR 006C
ENCODING 108
SWIDTH 360 0
DWIDTH 5 0
BBX 3 10 1 0
BITMAP
40
C0
40
40
40
40
40
40
40
E0
ENDCHAR
STARTCHAR 006D
ENCODING 109
SWIDTH 936 0
DWIDTH 13 0
BBX 13 7 0 0
BITMAP
5CE0
E310
4210
4210
4210
4210
E738
ENDCHAR
STARTCHAR 006E
ENCODING 110
SWIDTH 720 0
DWIDTH 10 0
BBX 8 7 1 0
BITMAP
5C
E2
42
42
42
42
E7
ENDCHAR
STARTCHAR 006F
ENCODING 111
SWIDTH 576 0
DWIDTH 8 0
BBX 6 7 1 0
BITMAP
30
48
84
84
84
48
30
ENDCHAR
STARTCHAR 0070
ENCODING 112
SWIDTH 576 0
DWIDTH 8 0
BBX 7 10 0 -3
BITMAP
58
E4
42
42
42
64
58
40
40
E0
ENDCHAR
STARTCHAR 0071
ENCODING 113
SWIDTH 576 0
DWIDTH 8 0
BBX 7 10 1 -3
BITMAP
34
4C
84
84
84
4C
34
04
04
0E
ENDCHAR
STARTCHAR 0072
ENCODING 114
SWIDTH 432 0
DWIDTH 6 0
BBX 5 7 0 0
BITMAP
58
E8
40
40
40
40
E0
ENDCHAR
STARTCHAR 0073
ENCODING 115
SWIDTH 504 0
DWIDTH 7 0
BBX 5 7 1 0
BITMAP
68
98
80
70
08
C8
B0
ENDCHAR
STARTCHAR 0074
ENCODING 116
SWIDTH 360 0
DWIDTH 5 0
BBX 4 9 0 0
BITMAP
40
40
F0
40
40
40
40
40
70
ENDCHAR
STARTCHAR 0075
ENCODING 117
SWIDTH 720 0
DWIDTH 10 0
BBX 8 7 1 0
BITMAP
C6
42
42
42
42
46
3B
ENDCHAR
STARTCHAR 0076
ENCODING 118
SWIDTH 504 0
DWIDTH 7 0
BBX 7 7 0 0
BITMAP
EE
44
44
28
28
28
10
ENDCHAR
STARTCHAR 0077
ENCODING 119
SWIDTH 792 0
DWIDTH 11 0
BBX 11 7 0 0
BITMAP
EEE0
4440
4440
2A80
2A80
2A80
1100
ENDCHAR
STARTCHAR 0078
ENCODING 120
SWIDTH 576 0
DWIDTH 8 0
BBX 8 7 0 0
BITMAP
F7
24
18
10
28
24
E7
ENDCHAR
STARTCHAR 0079
ENCODING 121
SWIDTH 576 0
DWIDTH 8 0
BBX 8 10 0 -3
BITMAP
E7
42
22
24
14
18
08
10
90
E0
ENDCHAR
STARTCHAR 007A
ENCODING 122
SWIDTH 504 0
DWIDTH 7 0
BBX 7 7 0 0
BITMAP
7E
C4
08
10
22
46
FC
ENDCHAR
STARTCHAR 007B
ENCODING 123
SWIDTH 288 0
DWIDTH 4 0
BBX 5 13 0 -3
BITMAP
18
30
20
20
20
60
80
40
20
20
20
30
18
ENDCHAR
STARTCHAR 007C
ENCODING 124
SWIDTH 576 0
DWIDTH 8 0
BBX 1 13 3 -3
BITMAP
80
80
80
80
80
80
80
80
80
80
80
80
80
ENDCHAR
STARTCHAR 007D
ENCODING 125
SWIDTH 288 0
DWIDTH 4 0
BBX 5 13 0 -3
BITMAP
C0
60
20
20
20
30
08
30
20
20
20
60
C0
ENDCHAR
STARTCHAR 007E
ENCODING 126
SWIDTH 576 0
DWIDTH 8 0
BBX 5 2 2 4
BITMAP
C8
30
ENDCHAR
STARTCHAR 00A0
ENCODING 160
SWIDTH 360 0
DWIDTH 5 0
BBX 1 1 0 0
BITMAP
00
ENDCHAR
STARTCHAR 00A1
ENCODING 161
SWIDTH 288 0
DWIDTH 4 0
BBX 1 10 1 -3
BITMAP
80
80
00
80
80
80
80
80
80
80
ENDCHAR
STARTCHAR 00A2
ENCODING 162
SWIDTH 648 0
DWIDTH 9 0
BBX 6 10 1 0
BITMAP
10
10
78
D4
90
90
D4
78
10
10
ENDCHAR
STARTCHAR 00A3
ENCODING 163
SWIDTH 648 0
DWIDTH 9 0
BBX 9 10 0 0
BITMAP
1E00
2100
2100
2000
FC00
3000
7080
9080
9900
6700
ENDCHAR
STARTCHAR 00A4
ENCODING 164
SWIDTH 576 0
DWIDTH 8 0
BBX 6 6 1 2
BITMAP
B4
48
84
84
48
B4
ENDCHAR
STARTCHAR 00A5
ENCODING 165
SWIDTH 648 0
DWIDTH 9 0
BBX 8 10 0 0
BITMAP
E7
42
24
24
FE
10
FE
10
10
38
ENDCHAR
STARTCHAR 00A6
ENCODING 166
SWIDTH 576 0
DWIDTH 8 0
BBX 1 13 3 -3
BITMAP
80
80
80
80
80
00
00
80
80
80
80
80
80
ENDCHAR
STARTCHAR 00A7
ENCODING 167
SWIDTH 504 0
DWIDTH 7 0
BBX 6 12 0 -2
BITMAP
78
8C
80
F0
8C
84
84
78
0C
84
C4
78
ENDCHAR
STARTCHAR 00A8
ENCODING 168
SWIDTH 432 0
DWIDTH 6 0
BBX 3 2 1 8
BITMAP
A0
A0
ENDCHAR
STARTCHAR 00A9
ENCODING 169
SWIDTH 720 0
DWIDTH 10 0
BBX 9 10 1 0
BITMAP
1C00
2200
5D00
A480
A080
A080
A080
5D00
2200
1C00
ENDCHAR
STARTCHAR 00AA
ENCODING 170
SWIDTH 432 0
DWIDTH 6 0
BBX 5 5 1 5
BITMAP
70
90
70
90
F8
ENDCHAR
STARTCHAR 00AB
ENCODING 171
SWIDTH 360 0
DWIDTH 5 0
BBX 4 4 1 1
BITMAP
50
A0
A0
50
ENDCHAR
STARTCHAR 00AC
ENCODING 172
SWIDTH 576 0
DWIDTH 8 0
BBX 6 5 1 0
BITMAP
FC
04
04
04
04
ENDCHAR
STARTCHAR 00AD
ENCODING 173
SWIDTH 432 0
DWIDTH 6 0
BBX 4 1 1 3
BITMAP
F0
ENDCHAR
STARTCHAR 00AE
ENCODING 174
SWIDTH 720 0
DWIDTH 10 0
BBX 9 10 1 0
BITMAP
3E00
4100
BC80
9480
9480
9880
9880
BE80
4100
3E00
ENDCHAR
STARTCHAR 00AF
ENCODING 175
SWIDTH 504 0
DWIDTH 7 0
BBX 7 1 0 10
BITMAP
FE
ENDCHAR
STARTCHAR 00B0
ENCODING 176
SWIDTH 432 0
DWIDTH 6 0
BBX 4 4 1 6
BITMAP
60
90
90
60
ENDCHAR
STARTCHAR 00B1
ENCODING 177
SWIDTH 576 0
DWIDTH 8 0
BBX 7 9 0 1
BITMAP
10
10
10
FE
10
10
10
00
FE
ENDCHAR
STARTCHAR 00B2
ENCODING 178
SWIDTH 360 0
DWIDTH 5 0
BBX 4 5 0 5
BITMAP
70
90
20
50
F0
ENDCHAR
STARTCHAR 00B3
ENCODING 179
SWIDTH 360 0
DWIDTH 5 0
BBX 4 5 0 5
BITMAP
F0
10
60
10
F0
ENDCHAR
STARTCHAR 00B4
ENCODING 180
SWIDTH 360 0
DWIDTH 5 0
BBX 3 2 1 8
BITMAP
60
C0
ENDCHAR
STARTCHAR 00B5
ENCODING 181
SWIDTH 576 0
DWIDTH 8 0
BBX 6 9 1 -2
BITMAP
88
88
88
88
88
98
E4
80
80
ENDCHAR
STARTCHAR 00B6
ENCODING 182
SWIDTH 576 0
DWIDTH 8 0
BBX 7 12 1 -3
BITMAP
7E
F4
F4
F4
74
14
14
14
14
14
14
14
ENDCHAR
STARTCHAR 00B7
ENCODING 183
SWIDTH 288 0
DWIDTH 4 0
BBX 1 2 1 4
BITMAP
80
80
ENDCHAR
STARTCHAR 00B8
ENCODING 184
SWIDTH 288 0
DWIDTH 4 0
BBX 3 4 0 -4
BITMAP
20
60
20
E0
ENDCHAR
STARTCHAR 00B9
ENCODING 185
SWIDTH 360 0
DWIDTH 5 0
BBX 3 5 1 5
BITMAP
C0
40
40
40
E0
ENDCHAR
STARTCHAR 00BA
ENCODING 186
SWIDTH 432 0
DWIDTH 6 0
BBX 5 5 0 5
BITMAP
70
88
88
88
70
ENDCHAR
STARTCHAR 00BB
ENCODING 187
SWIDTH 360 0
DWIDTH 5 0
BBX 4 4 1 1
BITMAP
A0
50
50
A0
ENDCHAR
STARTCHAR 00BC
ENCODING 188
SWIDTH 936 0
DWIDTH 13 0
BBX 11 10 1 0
BITMAP
C100
4100
4200
4200
E4C0
0540
0A40
0BE0
1040
1040
ENDCHAR
STARTCHAR 00BD
ENCODING 189
SWIDTH 936 0
DWIDTH 13 0
BBX 11 10 1 0
BITMAP
C100
4100
4200
4200
E400
04E0
0920
0840
10A0
11E0
ENDCHAR
STARTCHAR 00BE
ENCODING 190
SWIDTH 936 0
DWIDTH 13 0
BBX 13 10 0 0
BITMAP
F080
1080
6100
1100
F230
0250
0490
04F8
0810
0810
ENDCHAR
STARTCHAR 00BF
ENCODING 191
SWIDTH 576 0
DWIDTH 8 0
BBX 7 10 0 -3
BITMAP
08
08
00
08
38
C0
80
80
86
7C
ENDCHAR
STARTCHAR 00C0
ENCODING 192
SWIDTH 720 0
DWIDTH 10 0
BBX 9 13 0 0
BITMAP
1800
0C00
0000
0800
1400
1400
1400
2200
3E00
2200
4100
4100
E380
ENDCHAR
STARTCHAR 00C1
ENCODING 193
SWIDTH 720 0
DWIDTH 10 0
BBX 9 13 0 0
BITMAP
0C00
1800
0000
0800
1400
1400
1400
2200
3E00
2200
4100
4100
E380
ENDCHAR
STARTCHAR 00C2
ENCODING 194
SWIDTH 720 0
DWIDTH 10 0
BBX 9 13 0 0
BITMAP
0800
1400
0000
0800
1400
1400
1400
2200
3E00
2200
4100
4100
E380
ENDCHAR
STARTCHAR 00C3
ENCODING 195
SWIDTH 720 0
DWIDTH 10 0
BBX 9 13 0 0
BITMAP
3400
2C00
0000
0800
1400
1400
1400
2200
3E00
2200
4100
4100
E380
ENDCHAR
STARTCHAR 00C4
ENCODING 196
SWIDTH 720 0
DWIDTH 10 0
BBX 9 13 0 0
BITMAP
1400
1400
0000
0800
1400
1400
1400
2200
3E00
2200
4100
4100
E380
ENDCHAR
STARTCHAR 00C5
ENCODING 197
SWIDTH 720 0
DWIDTH 10 0
BBX 9 15 0 0
BITMAP
0C00
1200
1200
0C00
0000
0800
1400
1400
1400
2200
3E00
2200
4100
4100
E380
ENDCHAR
STARTCHAR 00C6
ENCODING 198
SWIDTH 1296 0
DWIDTH 18 0
BBX 17 10 0 0
BITMAP
07FE00
024300
044500
044400
0FFC00
104400
104400
204080
204180
E0FF00
ENDCHAR
STARTCHAR 00C7
ENCODING 199
SWIDTH 720 0
DWIDTH 10 0
BBX 9 14 1 -4
BITMAP
3E80
4180
8080
8000
8000
8000
8000
8080
4100
3E00
0800
1800
0800
3800
ENDCHAR
STARTCHAR 00C8
ENCODING 200
SWIDTH 648 0
DWIDTH 9 0
BBX 8 13 1 0
BITMAP
30
18
00
FE
42
49
48
78
48
48
41
42
FE
ENDCHAR
STARTCHAR 00C9
ENCODING 201
SWIDTH 648 0
DWIDTH 9 0
BBX 8 13 1 0
BITMAP
18
30
00
FE
42
49
48
78
48
48
41
42
FE
ENDCHAR
STARTCHAR 00CA
ENCODING 202
SWIDTH 648 0
DWIDTH 9 0
BBX 8 13 1 0
BITMAP
10
28
00
FE
42
49
48
78
48
48
41
42
FE
ENDCHAR
STARTCHAR 00CB
ENCODING 203
SWIDTH 648 0
DWIDTH 9 0
BBX 8 13 1 0
BITMAP
28
28
00
FE
42
49
48
78
48
48
41
42
FE
ENDCHAR
STARTCHAR 00CC
ENCODING 204
SWIDTH 360 0
DWIDTH 5 0
BBX 3 13 1 0
BITMAP
C0
60
00
E0
40
40
40
40
40
40
40
40
E0
ENDCHAR
STARTCHAR 00CD
ENCODING 205
SWIDTH 360 0
DWIDTH 5 0
BBX 3 13 1 0
BITMAP
60
C0
00
E0
40
40
40
40
40
40
40
40
E0
ENDCHAR
STARTCHAR 00CE
ENCODING 206
SWIDTH 360 0
DWIDTH 5 0
BBX 3 13 1 0
BITMAP
40
A0
00
E0
40
40
40
40
40
40
40
40
E0
ENDCHAR
STARTCHAR 00CF
ENCODING 207
SWIDTH 360 0
DWIDTH 5 0
BBX 3 13 1 0
BITMAP
A0
A0
00
E0
40
40
40
40
40
40
40
40
E0
ENDCHAR
STARTCHAR 00D0
ENCODING 208
SWIDTH 792 0
DWIDTH 11 0
BBX 9 10 1 0
BITMAP
FE00
4100
4080
4080
F880
4080
4080
4080
4100
FE00
ENDCHAR
STARTCHAR 00D1
ENCODING 209
SWIDTH 720 0
DWIDTH 10 0
BBX 8 13 1 0
BITMAP
34
2C
00
E7
62
52
52
52
4A
4A
46
46
E2
ENDCHAR
STARTCHAR 00D2
ENCODING 210
SWIDTH 792 0
DWIDTH 11 0
BBX 9 13 1 0
BITMAP
1800
0C00
0000
3E00
4100
8080
8080
8080
8080
8080
8080
4100
3E00
ENDCHAR
STARTCHAR 00D3
ENCODING 211
SWIDTH 792 0
DWIDTH 11 0
BBX 9 13 1 0
BITMAP
0C00
1800
0000
3E00
4100
8080
8080
8080
8080
8080
8080
4100
3E00
ENDCHAR
STARTCHAR 00D4
ENCODING 212
SWIDTH 792 0
DWIDTH 11 0
BBX 9 13 1 0
BITMAP
0800
1400
0000
3E00
4100
8080
8080
8080
8080
8080
8080
4100
3E00
ENDCHAR
STARTCHAR 00D5
ENCODING 213
SWIDTH 792 0
DWIDTH 11 0
BBX 9 13 1 0
BITMAP
1A00
1600
0000
3E00
4100
8080
8080
8080
8080
8080
8080
4100
3E00
ENDCHAR
STARTCHAR 00D6
ENCODING 214
SWIDTH 792 0
DWIDTH 11 0
BBX 9 13 1 0
BITMAP
1400
1400
0000
3E00
4100
8080
8080
8080
8080
8080
8080
4100
3E00
ENDCHAR
STARTCHAR 00D7
ENCODING 215
SWIDTH 576 0
DWIDTH 8 0
BBX 6 6 2 2
BITMAP
84
48
30
30
48
84
ENDCHAR
STARTCHAR 00D8
ENCODING 216
SWIDTH 792 0
DWIDTH 11 0
BBX 9 10 1 0
BITMAP
3E80
4300
8300
8480
8880
9080
9080
E080
4100
BE00
ENDCHAR
STARTCHAR 00D9
ENCODING 217
SWIDTH 720 0
DWIDTH 10 0
BBX 9 13 0 0
BITMAP
1800
0C00
0000
E380
4100
4100
4100
4100
4100
4100
4100
4100
3E00
ENDCHAR
STARTCHAR 00DA
ENCODING 218
SWIDTH 720 0
DWIDTH 10 0
BBX 9 13 0 0
BITMAP
0600
0C00
0000
E380
4100
4100
4100
4100
4100
4100
4100
4100
3E00
ENDCHAR
STARTCHAR 00DB
ENCODING 219
SWIDTH 720 0
DWIDTH 10 0
BBX 9 13 0 0
BITMAP
0800
1400
0000
E380
4100
4100
4100
4100
4100
4100
4100
4100
3E00
ENDCHAR
STARTCHAR 00DC
ENCODING 220
SWIDTH 720 0
DWIDTH 10 0
BBX 9 13 0 0
BITMAP
1400
1400
0000
E380
4100
4100
4100
4100
4100
4100
4100
4100
3E00
ENDCHAR
STARTCHAR 00DD
ENCODING 221
SWIDTH 648 0
DWIDTH 9 0
BBX 9 13 0 0
BITMAP
0C00
1800
0000
E380
4100
2200
2200
1400
0800
0800
0800
0800
1C00
ENDCHAR
STARTCHAR 00DE
ENCODING 222
SWIDTH 648 0
DWIDTH 9 0
BBX 8 10 1 0
BITMAP
E0
40
7E
41
41
41
41
7E
40
E0
ENDCHAR
STARTCHAR 00DF
ENCODING 223
SWIDTH 648 0
DWIDTH 9 0
BBX 8 10 0 0
BITMAP
3C
42
4E
D0
58
46
41
41
51
CE
ENDCHAR
STARTCHAR 00E0
ENCODING 224
SWIDTH 576 0
DWIDTH 8 0
BBX 7 10 1 0
BITMAP
30
18
00
78
84
3C
44
84
8C
76
ENDCHAR
STARTCHAR 00E1
ENCODING 225
SWIDTH 576 0
DWIDTH 8 0
BBX 7 10 1 0
BITMAP
18
30
00
78
84
3C
44
84
8C
76
ENDCHAR
STARTCHAR 00E2
ENCODING 226
SWIDTH 576 0
DWIDTH 8 0
BBX 7 10 1 0
BITMAP
10
28
00
78
84
3C
44
84
8C
76
ENDCHAR
STARTCHAR 00E3
ENCODING 227
SWIDTH 576 0
DWIDTH 8 0
BBX 7 10 1 0
BITMAP
68
58
00
78
84
3C
44
84
8C
76
ENDCHAR
STARTCHAR 00E4
ENCODING 228
SWIDTH 576 0
DWIDTH 8 0
BBX 7 10 1 0
BITMAP
28
28
00
78
84
3C
44
84
8C
76
ENDCHAR
STARTCHAR 00E5
ENCODING 229
SWIDTH 576 0
DWIDTH 8 0
BBX 7 12 1 0
BITMAP
30
48
48
30
00
78
84
3C
44
84
8C
76
ENDCHAR
STARTCHAR 00E6
ENCODING 230
SWIDTH 864 0
DWIDTH 12 0
BBX 11 7 1 0
BITMAP
7BC0
8620
3FE0
C400
8400
8A60
71C0
ENDCHAR
STARTCHAR 00E7
ENCODING 231
SWIDTH 576 0
DWIDTH 8 0
BBX 6 11 1 -4
BITMAP
38
44
80
80
80
44
38
10
30
10
70
ENDCHAR
STARTCHAR 00E8
ENCODING 232
SWIDTH 576 0
DWIDTH 8 0
BBX 6 10 1 0
BITMAP
30
18
00
38
44
FC
80
80
44
38
ENDCHAR
STARTCHAR 00E9
ENCODING 233
SWIDTH 576 0
DWIDTH 8 0
BBX 6 10 1 0
BITMAP
18
30
00
38
44
FC
80
80
44
38
ENDCHAR
STARTCHAR 00EA
ENCODING 234
SWIDTH 576 0
DWIDTH 8 0
BBX 6 10 1 0
BITMAP
10
28
00
38
44
FC
80
80
44
38
ENDCHAR
STARTCHAR 00EB
ENCODING 235
SWIDTH 576 0
DWIDTH 8 0
BBX 6 10 1 0
BITMAP
28
28
00
38
44
FC
80
80
44
38
ENDCHAR
STARTCHAR 00EC
ENCODING 236
SWIDTH 288 0
DWIDTH 4 0
BBX 3 10 0 0
BITMAP
C0
60
00
40
C0
40
40
40
40
E0
ENDCHAR
STARTCHAR 00ED
ENCODING 237
SWIDTH 288 0
DWIDTH 4 0
BBX 3 10 0 0
BITMAP
60
C0
00
40
C0
40
40
40
40
E0
ENDCHAR
STARTCHAR 00EE
ENCODING 238
SWIDTH 288 0
DWIDTH 4 0
BBX 3 10 0 0
BITMAP
40
A0
00
40
C0
40
40
40
40
E0
ENDCHAR
STARTCHAR 00EF
ENCODING 239
SWIDTH 288 0
DWIDTH 4 0
BBX 3 10 0 0
BITMAP
A0
A0
00
40
C0
40
40
40
40
E0
ENDCHAR
STARTCHAR 00F0
ENCODING 240
SWIDTH 576 0
DWIDTH 8 0
BBX 6 10 1 0
BITMAP
1C
70
08
38
4C
84
84
84
48
30
ENDCHAR
STARTCHAR 00F1
ENCODING 241
SWIDTH 720 0
DWIDTH 10 0
BBX 8 10 1 0
BITMAP
34
2C
00
5C
E2
42
42
42
42
E7
ENDCHAR
STARTCHAR 00F2
ENCODING 242
SWIDTH 576 0
DWIDTH 8 0
BBX 6 10 1 0
BITMAP
30
18
00
30
48
84
84
84
48
30
ENDCHAR
STARTCHAR 00F3
ENCODING 243
SWIDTH 576 0
DWIDTH 8 0
BBX 6 10 1 0
BITMAP
18
30
00
30
48
84
84
84
48
30
ENDCHAR
STARTCHAR 00F4
ENCODING 244
SWIDTH 576 0
DWIDTH 8 0
BBX 6 10 1 0
BITMAP
10
28
00
30
48
84
84
84
48
30
ENDCHAR
STARTCHAR 00F5
ENCODING 245
SWIDTH 576 0
DWIDTH 8 0
BBX 6 10 1 0
BITMAP
68
58
00
30
48
84
84
84
48
30
ENDCHAR
STARTCHAR 00F6
ENCODING 246
SWIDTH 576 0
DWIDTH 8 0
BBX 6 10 1 0
BITMAP
28
28
00
30
48
84
84
84
48
30
ENDCHAR
STARTCHAR 00F7
ENCODING 247
SWIDTH 576 0
DWIDTH 8 0
BBX 7 5 0 2
BITMAP
10
00
FE
00
10
ENDCHAR
STARTCHAR 00F8
ENCODING 248
SWIDTH 576 0
DWIDTH 8 0
BBX 6 7 1 0
BITMAP
3C
4C
94
A4
A4
C8
F0
ENDCHAR
STARTCHAR 00F9
ENCODING 249
SWIDTH 720 0
DWIDTH 10 0
BBX 8 10 1 0
BITMAP
18
0C
00
C6
42
42
42
42
46
3B
ENDCHAR
STARTCHAR 00FA
ENCODING 250
SWIDTH 720 0
DWIDTH 10 0
BBX 8 10 1 0
BITMAP
0C
18
00
C6
42
42
42
42
46
3B
ENDCHAR
STARTCHAR 00FB
ENCODING 251
SWIDTH 720 0
DWIDTH 10 0
BBX 8 10 1 0
BITMAP
08
14
00
C6
42
42
42
42
46
3B
ENDCHAR
STARTCHAR 00FC
ENCODING 252
SWIDTH 720 0
DWIDTH 10 0
BBX 8 10 1 0
BITMAP
14
14
00
C6
42
42
42
42
46
3B
ENDCHAR
STARTCHAR 00FD
ENCODING 253
SWIDTH 576 0
DWIDTH 8 0
BBX 8 13 0 -3
BITMAP
0C
18
00
E7
42
22
24
14
18
08
10
90
E0
ENDCHAR
STARTCHAR 00FE
ENCODING 254
SWIDTH 648 0
DWIDTH 9 0
BBX 7 13 0 -3
BITMAP
40
C0
40
58
64
42
42
42
64
58
40
40
E0
ENDCHAR
STARTCHAR 00FF
ENCODING 255
SWIDTH 576 0
DWIDTH 8 0
BBX 8 13 0 -3
BITMAP
14
14
00
E7
42
22
24
14
18
08
10
90
E0
ENDCHAR
STARTCHAR 0100
ENCODING 256
SWIDTH 720 0
DWIDTH 10 0
BBX 9 12 0 0
BITMAP
1E00
0000
0800
1400
1400
1400
2200
3E00
2200
4100
4100
E380
ENDCHAR
STARTCHAR 0101
ENCODING 257
SWIDTH 576 0
DWIDTH 8 0
BBX 7 9 1 0
BITMAP
78
00
78
84
3C
44
84
8C
76
ENDCHAR
STARTCHAR 0102
ENCODING 258
SWIDTH 720 0
DWIDTH 10 0
BBX 9 13 0 0
BITMAP
2200
1C00
0000
0800
1400
1400
1400
2200
3E00
2200
4100
4100
E380
ENDCHAR
STARTCHAR 0103
ENCODING 259
SWIDTH 576 0
DWIDTH 8 0
BBX 7 10 1 0
BITMAP
44
38
00
78
84
3C
44
84
8C
76
ENDCHAR
STARTCHAR 0104
ENCODING 260
SWIDTH 720 0
DWIDTH 10 0
BBX 9 12 0 -2
BITMAP
0800
1400
1400
1400
2200
3E00
2200
4100
4100
E380
0100
0180
ENDCHAR
STARTCHAR 0105
ENCODING 261
SWIDTH 576 0
DWIDTH 8 0
BBX 7 9 1 -2
BITMAP
78
84
3C
44
84
8C
76
04
06
ENDCHAR
STARTCHAR 0106
ENCODING 262
SWIDTH 720 0
DWIDTH 10 0
BBX 9 13 1 0
BITMAP
0600
0C00
0000
3E80
4180
8080
8000
8000
8000
8000
8080
4100
3E00
ENDCHAR
STARTCHAR 0107
ENCODING 263
SWIDTH 576 0
DWIDTH 8 0
BBX 6 10 1 0
BITMAP
18
30
00
38
44
80
80
80
44
38
ENDCHAR
STARTCHAR 0108
ENCODING 264
SWIDTH 720 0
DWIDTH 10 0
BBX 9 13 1 0
BITMAP
0800
1400
0000
3E80
4180
8080
8000
8000
8000
8000
8080
4100
3E00
ENDCHAR
STARTCHAR 0109
ENCODING 265
SWIDTH 576 0
DWIDTH 8 0
BBX 6 10 1 0
BITMAP
10
28
00
38
44
80
80
80
44
38
ENDCHAR
STARTCHAR 010A
ENCODING 266
SWIDTH 720 0
DWIDTH 10 0
BBX 9 13 1 0
BITMAP
0800
0800
0000
3E80
4180
8080
8000
8000
8000
8000
8080
4100
3E00
ENDCHAR
STARTCHAR 010B
ENCODING 267
SWIDTH 576 0
DWIDTH 8 0
BBX 6 10 1 0
BITMAP
10
10
00
38
44
80
80
80
44
38
ENDCHAR
STARTCHAR 010C
ENCODING 268
SWIDTH 720 0
DWIDTH 10 0
BBX 9 13 1 0
BITMAP
1400
0800
0000
3E80
4180
8080
8000
8000
8000
8000
8080
4100
3E00
ENDCHAR
STARTCHAR 010D
ENCODING 269
SWIDTH 576 0
DWIDTH 8 0
BBX 6 10 1 0
BITMAP
28
10
00
38
44
80
80
80
44
38
ENDCHAR
STARTCHAR 010E
ENCODING 270
SWIDTH 792 0
DWIDTH 11 0
BBX 9 13 1 0
BITMAP
1400
0800
0000
FE00
4100
4080
4080
4080
4080
4080
4080
4100
FE00
ENDCHAR
STARTCHAR 010F
ENCODING 271
SWIDTH 648 0
DWIDTH 9 0
BBX 9 10 1 0
BITMAP
0580
0C80
0480
3500
4C00
8400
8400
8400
4C00
3600
ENDCHAR
STARTCHAR 0110
ENCODING 272
SWIDTH 792 0
DWIDTH 11 0
BBX 9 10 1 0
BITMAP
FE00
4100
4080
4080
F880
4080
4080
4080
4100
FE00
ENDCHAR
STARTCHAR 0111
ENCODING 273
SWIDTH 648 0
DWIDTH 9 0
BBX 8 10 1 0
BITMAP
02
0E
02
3F
46
82
82
82
46
3B
ENDCHAR
STARTCHAR 0112
ENCODING 274
SWIDTH 648 0
DWIDTH 9 0
BBX 8 12 1 0
BITMAP
3C
00
FE
42
49
48
78
48
48
41
42
FE
ENDCHAR
STARTCHAR 0113
ENCODING 275
SWIDTH 576 0
DWIDTH 8 0
BBX 6 9 1 0
BITMAP
78
00
38
44
FC
80
80
44
38
ENDCHAR
STARTCHAR 0114
ENCODING 276
SWIDTH 648 0
DWIDTH 9 0
BBX 8 13 1 0
BITMAP
44
38
00
FE
42
49
48
78
48
48
41
42
FE
ENDCHAR
STARTCHAR 0115
ENCODING 277
SWIDTH 576 0
DWIDTH 8 0
BBX 6 10 1 0
BITMAP
44
38
00
38
44
FC
80
80
44
38
ENDCHAR
STARTCHAR 0116
ENCODING 278
SWIDTH 648 0
DWIDTH 9 0
BBX 8 13 1 0
BITMAP
10
10
00
FE
42
49
48
78
48
48
41
42
FE
ENDCHAR
STARTCHAR 0117
ENCODING 279
SWIDTH 576 0
DWIDTH 8 0
BBX 6 10 1 0
BITMAP
10
10
00
38
44
FC
80
80
44
38
ENDCHAR
STARTCHAR 0118
ENCODING 280
SWIDTH 648 0
DWIDTH 9 0
BBX 8 12 1 -2
BITMAP
FE
42
49
48
78
48
48
41
42
FE
08
0C
ENDCHAR
STARTCHAR 0119
ENCODING 281
SWIDTH 576 0
DWIDTH 8 0
BBX 6 9 1 -2
BITMAP
38
44
FC
80
80
44
38
20
30
ENDCHAR
STARTCHAR 011A
ENCODING 282
SWIDTH 648 0
DWIDTH 9 0
BBX 8 13 1 0
BITMAP
28
10
00
FE
42
49
48
78
48
48
41
42
FE
ENDCHAR
STARTCHAR 011B
ENCODING 283
SWIDTH 576 0
DWIDTH 8 0
BBX 6 10 1 0
BITMAP
28
10
00
38
44
FC
80
80
44
38
ENDCHAR
STARTCHAR 011C
ENCODING 284
SWIDTH 792 0
DWIDTH 11 0
BBX 10 13 1 0
BITMAP
0800
1400
0000
3E80
4180
8080
8000
8000
81C0
8080
8080
4180
3E80
ENDCHAR
STARTCHAR 011D
ENCODING 285
SWIDTH 576 0
DWIDTH 8 0
BBX 7 13 1 -3
BITMAP
10
28
00
7A
84
84
84
78
C0
3C
C2
84
78
ENDCHAR
STARTCHAR 011E
ENCODING 286
SWIDTH 792 0
DWIDTH 11 0
BBX 10 13 1 0
BITMAP
1100
0E00
0000
3E80
4180
8080
8000
8000
81C0
8080
8080
4180
3E80
ENDCHAR
STARTCHAR 011F
ENCODING 287
SWIDTH 576 0
DWIDTH 8 0
BBX 7 13 1 -3
BITMAP
44
38
00
7A
84
84
84
78
C0
3C
C2
84
78
ENDCHAR
STARTCHAR 0120
ENCODING 288
SWIDTH 792 0
DWIDTH 11 0
BBX 10 13 1 0
BITMAP
0800
0800
0000
3E80
4180
8080
8000
8000
81C0
8080
8080
4180
3E80
ENDCHAR
STARTCHAR 0121
ENCODING 289
SWIDTH 576 0
DWIDTH 8 0
BBX 7 13 1 -3
BITMAP
10
10
00
7A
84
84
84
78
C0
3C
C2
84
78
ENDCHAR
STARTCHAR 0122
ENCODING 290
SWIDTH 792 0
DWIDTH 11 0
BBX 10 14 1 -4
BITMAP
3E80
4180
8080
8000
8000
81C0
8080
8080
4180
3E80
0400
0C00
0400
1C00
ENDCHAR
STARTCHAR 0123
ENCODING 291
SWIDTH 576 0
DWIDTH 8 0
BBX 7 14 1 -3
BITMAP
10
20
20
00
7A
84
84
84
78
C0
3C
C2
84
78
ENDCHAR
STARTCHAR 0124
ENCODING 292
SWIDTH 792 0
DWIDTH 11 0
BBX 9 13 1 0
BITMAP
0800
1400
0000
E380
4100
4100
4100
7F00
4100
4100
4100
4100
E380
ENDCHAR
STARTCHAR 0125
ENCODING 293
SWIDTH 648 0
DWIDTH 9 0
BBX 8 13 0 0
BITMAP
10
28
00
40
C0
40
5C
62
42
42
42
42
E7
ENDCHAR
STARTCHAR 0126
ENCODING 294
SWIDTH 792 0
DWIDTH 11 0
BBX 9 10 1 0
BITMAP
E380
4100
FF80
4100
7F00
4100
4100
4100
4100
E380
ENDCHAR
STARTCHAR 0127
ENCODING 295
SWIDTH 648 0
DWIDTH 9 0
BBX 8 10 0 0
BITMAP
40
C0
F8
5C
62
42
42
42
42
E7
ENDCHAR
STARTCHAR 0128
ENCODING 296
SWIDTH 360 0
DWIDTH 5 0
BBX 4 13 1 0
BITMAP
D0
B0
00
E0
40
40
40
40
40
40
40
40
E0
ENDCHAR
STARTCHAR 0129
ENCODING 297
SWIDTH 288 0
DWIDTH 4 0
BBX 4 10 -1 0
BITMAP
D0
B0
00
20
60
20
20
20
20
70
ENDCHAR
STARTCHAR 012A
ENCODING 298
SWIDTH 360 0
DWIDTH 5 0
BBX 4 12 1 0
BITMAP
F0
00
E0
40
40
40
40
40
40
40
40
E0
ENDCHAR
STARTCHAR 012B
ENCODING 299
SWIDTH 288 0
DWIDTH 4 0
BBX 4 9 -1 0
BITMAP
F0
00
20
60
20
20
20
20
70
ENDCHAR
STARTCHAR 012C
ENCODING 300
SWIDTH 360 0
DWIDTH 5 0
BBX 5 13 0 0
BITMAP
88
70
00
70
20
20
20
20
20
20
20
20
70
ENDCHAR
STARTCHAR 012D
ENCODING 301
SWIDTH 288 0
DWIDTH 4 0
BBX 5 10 -1 0
BITMAP
88
70
00
20
60
20
20
20
20
70
ENDCHAR
STARTCHAR 012E
ENCODING 302
SWIDTH 360 0
DWIDTH 5 0
BBX 3 12 1 -2
BITMAP
E0
40
40
40
40
40
40
40
40
E0
80
C0
ENDCHAR
STARTCHAR 012F
ENCODING 303
SWIDTH 360 0
DWIDTH 5 0
BBX 3 12 1 -2
BITMAP
40
40
00
40
C0
40
40
40
40
E0
80
C0
ENDCHAR
STARTCHAR 0130
ENCODING 304
SWIDTH 360 0
DWIDTH 5 0
BBX 3 13 1 0
BITMAP
40
40
00
E0
40
40
40
40
40
40
40
40
E0
ENDCHAR
STARTCHAR 0131
ENCODING 305
SWIDTH 288 0
DWIDTH 4 0
BBX 3 7 0 0
BITMAP
40
C0
40
40
40
40
E0
ENDCHAR
STARTCHAR 0132
ENCODING 306
SWIDTH 936 0
DWIDTH 13 0
BBX 11 10 1 0
BITMAP
E0E0
4040
4040
4040
4040
4040
4840
4840
4840
E780
ENDCHAR
STARTCHAR 0133
ENCODING 307
SWIDTH 576 0
DWIDTH 8 0
BBX 6 13 1 -3
BITMAP
44
44
00
44
CC
44
44
44
44
E4
04
24
38
ENDCHAR
STARTCHAR 0134
ENCODING 308
SWIDTH 576 0
DWIDTH 8 0
BBX 7 13 0 0
BITMAP
04
0A
00
0E
04
04
04
04
04
84
84
84
78
ENDCHAR
STARTCHAR 0135
ENCODING 309
SWIDTH 288 0
DWIDTH 4 0
BBX 5 13 -1 -3
BITMAP
30
48
00
10
30
10
10
10
10
10
10
90
E0
ENDCHAR
STARTCHAR 0136
ENCODING 310
SWIDTH 720 0
DWIDTH 10 0
BBX 9 13 1 -3
BITMAP
E780
4200
4400
4800
5000
6800
4400
4200
4200
E780
0000
0C00
0C00
ENDCHAR
STARTCHAR 0137
ENCODING 311
SWIDTH 648 0
DWIDTH 9 0
BBX 9 13 0 -3
BITMAP
4000
C000
4000
4700
4400
5800
6800
4400
4200
E780
0000
1800
1800
ENDCHAR
STARTCHAR 0138
ENCODING 312
SWIDTH 648 0
DWIDTH 9 0
BBX 8 7 1 0
BITMAP
47
C4
58
68
48
44
EF
ENDCHAR
STARTCHAR 0139
ENCODING 313
SWIDTH 576 0
DWIDTH 8 0
BBX 7 13 1 0
BITMAP
30
60
00
E0
40
40
40
40
40
40
42
44
FC
ENDCHAR
STARTCHAR 013A
ENCODING 314
SWIDTH 360 0
DWIDTH 5 0
BBX 3 13 1 0
BITMAP
60
C0
00
40
C0
40
40
40
40
40
40
40
E0
ENDCHAR
STARTCHAR 013B
ENCODING 315
SWIDTH 576 0
DWIDTH 8 0
BBX 7 13 1 -3
BITMAP
E0
40
40
40
40
40
40
42
44
FC
00
30
30
ENDCHAR
STARTCHAR 013C
ENCODING 316
SWIDTH 360 0
DWIDTH 5 0
BBX 3 13 1 -3
BITMAP
40
C0
40
40
40
40
40
40
40
E0
00
C0
C0
ENDCHAR
STARTCHAR 013D
ENCODING 317
SWIDTH 576 0
DWIDTH 8 0
BBX 7 10 1 0
BITMAP
E6
42
42
44
40
40
40
42
44
FC
ENDCHAR
STARTCHAR 013E
ENCODING 318
SWIDTH 360 0
DWIDTH 5 0
BBX 5 10 1 0
BITMAP
58
C8
48
50
40
40
40
40
40
E0
ENDCHAR
STARTCHAR 013F
ENCODING 319
SWIDTH 576 0
DWIDTH 8 0
BBX 7 10 1 0
BITMAP
E0
40
40
40
50
50
40
42
44
FC
ENDCHAR
STARTCHAR 0140
ENCODING 320
SWIDTH 360 0
DWIDTH 5 0
BBX 4 10 1 0
BITMAP
40
C0
40
40
50
50
40
40
40
E0
ENDCHAR
STARTCHAR 0141
ENCODING 321
SWIDTH 576 0
DWIDTH 8 0
BBX 7 10 1 0
BITMAP
E0
40
50
60
40
C0
C0
42
46
FC
ENDCHAR
STARTCHAR 0142
ENCODING 322
SWIDTH 288 0
DWIDTH 4 0
BBX 3 10 0 0
BITMAP
40
C0
40
60
40
C0
40
40
40
E0
ENDCHAR
STARTCHAR 0143
ENCODING 323
SWIDTH 720 0
DWIDTH 10 0
BBX 8 13 1 0
BITMAP
0C
18
00
E7
62
52
52
52
4A
4A
46
46
E2
ENDCHAR
STARTCHAR 0144
ENCODING 324
SWIDTH 720 0
DWIDTH 10 0
BBX 8 10 1 0
BITMAP
18
30
00
5C
E2
42
42
42
42
E7
ENDCHAR
STARTCHAR 0145
ENCODING 325
SWIDTH 720 0
DWIDTH 10 0
BBX 8 13 1 -3
BITMAP
E7
62
52
52
52
4A
4A
46
46
E2
00
18
18
ENDCHAR
STARTCHAR 0146
ENCODING 326
SWIDTH 720 0
DWIDTH 10 0
BBX 8 10 1 -3
BITMAP
5C
E2
42
42
42
42
E7
00
18
18
ENDCHAR
STARTCHAR 0147
ENCODING 327
SWIDTH 720 0
DWIDTH 10 0
BBX 8 13 1 0
BITMAP
14
08
00
E7
62
52
52
52
4A
4A
46
46
E2
ENDCHAR
STARTCHAR 0148
ENCODING 328
SWIDTH 720 0
DWIDTH 10 0
BBX 8 10 1 0
BITMAP
28
10
00
5C
E2
42
42
42
42
E7
ENDCHAR
STARTCHAR 0149
ENCODING 329
SWIDTH 792 0
DWIDTH 11 0
BBX 10 10 0 0
BITMAP
C000
C000
4000
9700
3880
1080
1080
1080
1080
39C0
ENDCHAR
STARTCHAR 014A
ENCODING 330
SWIDTH 792 0
DWIDTH 11 0
BBX 9 10 1 0
BITMAP
DE00
6100
4080
4080
4080
4080
4080
4880
4900
E600
ENDCHAR
STARTCHAR 014B
ENCODING 331
SWIDTH 720 0
DWIDTH 10 0
BBX 7 10 1 -3
BITMAP
5C
E2
42
42
42
42
E2
02
12
1C
ENDCHAR
STARTCHAR 014C
ENCODING 332
SWIDTH 792 0
DWIDTH 11 0
BBX 9 12 1 0
BITMAP
3C00
0000
3E00
4100
8080
8080
8080
8080
8080
8080
4100
3E00
ENDCHAR
STARTCHAR 014D
ENCODING 333
SWIDTH 576 0
DWIDTH 8 0
BBX 6 9 1 0
BITMAP
78
00
30
48
84
84
84
48
30
ENDCHAR
STARTCHAR 014E
ENCODING 334
SWIDTH 792 0
DWIDTH 11 0
BBX 9 13 1 0
BITMAP
2200
1C00
0000
3E00
4100
8080
8080
8080
8080
8080
8080
4100
3E00
ENDCHAR
STARTCHAR 014F
ENCODING 335
SWIDTH 576 0
DWIDTH 8 0
BBX 6 10 1 0
BITMAP
88
70
00
30
48
84
84
84
48
30
ENDCHAR
STARTCHAR 0150
ENCODING 336
SWIDTH 792 0
DWIDTH 11 0
BBX 9 13 1 0
BITMAP
0A00
1400
0000
3E00
4100
8080
8080
8080
8080
8080
8080
4100
3E00
ENDCHAR
STARTCHAR 0151
ENCODING 337
SWIDTH 576 0
DWIDTH 8 0
BBX 6 10 1 0
BITMAP
14
28
00
30
48
84
84
84
48
30
ENDCHAR
STARTCHAR 0152
ENCODING 338
SWIDTH 1224 0
DWIDTH 17 0
BBX 16 10 1 0
BITMAP
3EFC
4186
808A
8088
80F8
8088
8088
8081
4183
3EFE
ENDCHAR
STARTCHAR 0153
ENCODING 339
SWIDTH 936 0
DWIDTH 13 0
BBX 11 7 1 0
BITMAP
33C0
4E20
87E0
8400
8400
4A60
31C0
ENDCHAR
STARTCHAR 0154
ENCODING 340
SWIDTH 720 0
DWIDTH 10 0
BBX 8 13 1 0
BITMAP
0C
18
00
FE
41
41
41
7E
48
48
44
42
E1
ENDCHAR
STARTCHAR 0155
ENCODING 341
SWIDTH 432 0
DWIDTH 6 0
BBX 5 10 0 0
BITMAP
30
60
00
58
E8
40
40
40
40
E0
ENDCHAR
STARTCHAR 0156
ENCODING 342
SWIDTH 720 0
DWIDTH 10 0
BBX 8 13 1 -3
BITMAP
FE
41
41
41
7E
48
48
44
42
E1
00
18
18
ENDCHAR
STARTCHAR 0157
ENCODING 343
SWIDTH 432 0
DWIDTH 6 0
BBX 5 10 0 -3
BITMAP
58
E8
40
40
40
40
E0
00
60
60
ENDCHAR
STARTCHAR 0158
ENCODING 344
SWIDTH 720 0
DWIDTH 10 0
BBX 8 13 1 0
BITMAP
14
08
00
FE
41
41
41
7E
48
48
44
42
E1
ENDCHAR
STARTCHAR 0159
ENCODING 345
SWIDTH 432 0
DWIDTH 6 0
BBX 5 10 0 0
BITMAP
50
20
00
58
E8
40
40
40
40
E0
ENDCHAR
STARTCHAR 015A
ENCODING 346
SWIDTH 648 0
DWIDTH 9 0
BBX 7 13 1 0
BITMAP
18
30
00
7A
86
82
80
70
0C
02
82
C2
BC
ENDCHAR
STARTCHAR 015B
ENCODING 347
SWIDTH 504 0
DWIDTH 7 0
BBX 5 10 1 0
BITMAP
30
60
00
68
98
80
70
08
C8
B0
ENDCHAR
STARTCHAR 015C
ENCODING 348
SWIDTH 648 0
DWIDTH 9 0
BBX 7 13 1 0
BITMAP
10
28
00
7A
86
82
80
70
0C
02
82
C2
BC
ENDCHAR
STARTCHAR 015D
ENCODING 349
SWIDTH 504 0
DWIDTH 7 0
BBX 5 10 1 0
BITMAP
20
50
00
68
98
80
70
08
C8
B0
ENDCHAR
STARTCHAR 015E
ENCODING 350
SWIDTH 648 0
DWIDTH 9 0
BBX 7 14 1 -4
BITMAP
7A
86
82
80
70
0C
02
82
C2
BC
10
30
10
70
ENDCHAR
STARTCHAR 015F
ENCODING 351
SWIDTH 504 0
DWIDTH 7 0
BBX 5 11 1 -4
BITMAP
68
98
80
70
08
C8
B0
20
60
20
E0
ENDCHAR
STARTCHAR 0160
ENCODING 352
SWIDTH 648 0
DWIDTH 9 0
BBX 7 13 1 0
BITMAP
28
10
00
7A
86
82
80
70
0C
02
82
C2
BC
ENDCHAR
STARTCHAR 0161
ENCODING 353
SWIDTH 504 0
DWIDTH 7 0
BBX 5 10 1 0
BITMAP
50
20
00
68
98
80
70
08
C8
B0
ENDCHAR
STARTCHAR 0162
ENCODING 354
SWIDTH 648 0
DWIDTH 9 0
BBX 9 14 0 -4
BITMAP
7F00
C900
8880
0800
0800
0800
0800
0800
0800
1C00
0000
0800
0800
1000
ENDCHAR
STARTCHAR 0163
ENCODING 355
SWIDTH 360 0
DWIDTH 5 0
BBX 4 13 0 -4
BITMAP
40
40
F0
40
40
40
40
40
70
00
20
20
40
ENDCHAR
STARTCHAR 0164
ENCODING 356
SWIDTH 648 0
DWIDTH 9 0
BBX 9 13 0 0
BITMAP
1400
0800
0000
7F00
C900
8880
0800
0800
0800
0800
0800
0800
1C00
ENDCHAR
STARTCHAR 0165
ENCODING 357
SWIDTH 360 0
DWIDTH 5 0
BBX 5 10 0 0
BITMAP
18
48
50
F0
40
40
40
40
40
70
ENDCHAR
STARTCHAR 0166
ENCODING 358
SWIDTH 648 0
DWIDTH 9 0
BBX 9 10 0 0
BITMAP
7F00
C900
8880
0800
7F00
0800
0800
0800
0800
1C00
ENDCHAR
STARTCHAR 0167
ENCODING 359
SWIDTH 360 0
DWIDTH 5 0
BBX 4 9 0 0
BITMAP
40
40
F0
40
F0
40
40
40
70
ENDCHAR
STARTCHAR 0168
ENCODING 360
SWIDTH 720 0
DWIDTH 10 0
BBX 9 13 0 0
BITMAP
3400
2C00
0000
E380
4100
4100
4100
4100
4100
4100
4100
4100
3E00
ENDCHAR
STARTCHAR 0169
ENCODING 361
SWIDTH 720 0
DWIDTH 10 0
BBX 8 10 1 0
BITMAP
34
2C
00
C6
42
42
42
42
46
3B
ENDCHAR
STARTCHAR 016A
ENCODING 362
SWIDTH 720 0
DWIDTH 10 0
BBX 9 12 0 0
BITMAP
3C00
0000
E380
4100
4100
4100
4100
4100
4100
4100
4100
3E00
ENDCHAR
STARTCHAR 016B
ENCODING 363
SWIDTH 720 0
DWIDTH 10 0
BBX 8 9 1 0
BITMAP
3C
00
C6
42
42
42
42
46
3B
ENDCHAR
STARTCHAR 016C
ENCODING 364
SWIDTH 720 0
DWIDTH 10 0
BBX 9 13 0 0
BITMAP
2200
1C00
0000
E380
4100
4100
4100
4100
4100
4100
4100
4100
3E00
ENDCHAR
STARTCHAR 016D
ENCODING 365
SWIDTH 720 0
DWIDTH 10 0
BBX 8 10 1 0
BITMAP
22
1C
00
C6
42
42
42
42
46
3B
ENDCHAR
STARTCHAR 016E
ENCODING 366
SWIDTH 720 0
DWIDTH 10 0
BBX 9 15 0 0
BITMAP
0C00
1200
1200
0C00
0000
E380
4100
4100
4100
4100
4100
4100
4100
4100
3E00
ENDCHAR
STARTCHAR 016F
ENCODING 367
SWIDTH 720 0
DWIDTH 10 0
BBX 8 12 1 0
BITMAP
18
24
24
18
00
C6
42
42
42
42
46
3B
ENDCHAR
STARTCHAR 0170
ENCODING 368
SWIDTH 720 0
DWIDTH 10 0
BBX 9 13 0 0
BITMAP
0A00
1400
0000
E380
4100
4100
4100
4100
4100
4100
4100
4100
3E00
ENDCHAR
STARTCHAR 0171
ENCODING 369
SWIDTH 720 0
DWIDTH 10 0
BBX 8 10 1 0
BITMAP
0A
14
00
C6
42
42
42
42
46
3B
ENDCHAR
STARTCHAR 0172
ENCODING 370
SWIDTH 720 0
DWIDTH 10 0
BBX 9 12 0 -2
BITMAP
E380
4100
4100
4100
4100
4100
4100
4100
4100
3E00
0800
0C00
ENDCHAR
STARTCHAR 0173
ENCODING 371
SWIDTH 720 0
DWIDTH 10 0
BBX 8 9 1 -2
BITMAP
C6
42
42
42
42
46
3B
04
06
ENDCHAR
STARTCHAR 0174
ENCODING 372
SWIDTH 936 0
DWIDTH 13 0
BBX 14 13 0 0
BITMAP
0100
0280
0000
F39C
4108
2108
2288
2290
1290
1450
1450
1860
0820
ENDCHAR
STARTCHAR 0175
ENCODING 373
SWIDTH 792 0
DWIDTH 11 0
BBX 11 10 0 0
BITMAP
0400
0A00
0000
EEE0
4440
4440
2A80
2A80
2A80
1100
ENDCHAR
STARTCHAR 0176
ENCODING 374
SWIDTH 648 0
DWIDTH 9 0
BBX 9 13 0 0
BITMAP
0800
1400
0000
E380
4100
2200
2200
1400
0800
0800
0800
0800
1C00
ENDCHAR
STARTCHAR 0177
ENCODING 375
SWIDTH 576 0
DWIDTH 8 0
BBX 8 13 0 -3
BITMAP
08
14
00
E7
42
22
24
14
18
08
10
90
E0
ENDCHAR
STARTCHAR 0178
ENCODING 376
SWIDTH 648 0
DWIDTH 9 0
BBX 9 13 0 0
BITMAP
1400
1400
0000
E380
4100
2200
2200
1400
0800
0800
0800
0800
1C00
ENDCHAR
STARTCHAR 0179
ENCODING 377
SWIDTH 648 0
DWIDTH 9 0
BBX 9 13 0 0
BITMAP
0C00
1800
0000
7F00
C200
8200
0400
0800
1000
2000
4080
4100
FF00
ENDCHAR
STARTCHAR 017A
ENCODING 378
SWIDTH 504 0
DWIDTH 7 0
BBX 7 10 0 0
BITMAP
18
30
00
7E
C4
08
10
22
46
FC
ENDCHAR
STARTCHAR 017B
ENCODING 379
SWIDTH 648 0
DWIDTH 9 0
BBX 9 13 0 0
BITMAP
0800
0800
0000
7F00
C200
8200
0400
0800
1000
2000
4080
4100
FF00
ENDCHAR
STARTCHAR 017C
ENCODING 380
SWIDTH 504 0
DWIDTH 7 0
BBX 7 10 0 0
BITMAP
08
08
00
7E
C4
08
10
22
46
FC
ENDCHAR
STARTCHAR 017D
ENCODING 381
SWIDTH 648 0
DWIDTH 9 0
BBX 9 13 0 0
BITMAP
1400
0800
0000
7F00
C200
8200
0400
0800
1000
2000
4080
4100
FF00
ENDCHAR
STARTCHAR 017E
ENCODING 382
SWIDTH 504 0
DWIDTH 7 0
BBX 7 10 0 0
BITMAP
28
10
00
7E
C4
08
10
22
46
FC
ENDCHAR
STARTCHAR 017F
ENCODING 383
SWIDTH 360 0
DWIDTH 5 0
BBX 5 10 1 0
BITMAP
38
40
40
40
40
40
40
40
40
E0
ENDCHAR
STARTCHAR 0192
ENCODING 402
SWIDTH 648 0
DWIDTH 9 0
BBX 9 13 0 -3
BITMAP
0380
0480
0400
1E00
0800
0800
0800
1000
1000
1000
3000
A000
C000
ENDCHAR
STARTCHAR 01FA
ENCODING 506
SWIDTH 720 0
DWIDTH 10 0
BBX 9 16 0 0
BITMAP
0C00
1800
0000
0C00
1200
1200
0C00
1400
1400
1400
2200
3E00
2200
4100
4100
E380
ENDCHAR
STARTCHAR 01FB
ENCODING 507
SWIDTH 576 0
DWIDTH 8 0
BBX 7 15 1 0
BITMAP
18
30
00
30
48
48
30
00
78
84
3C
44
84
8C
76
ENDCHAR
STARTCHAR 01FC
ENCODING 508
SWIDTH 1296 0
DWIDTH 18 0
BBX 17 13 0 0
BITMAP
006000
00C000
000000
07FE00
024300
044500
044400
0FFC00
104400
104400
204080
204180
E0FF00
ENDCHAR
STARTCHAR 01FD
ENCODING 509
SWIDTH 864 0
DWIDTH 12 0
BBX 11 10 1 0
BITMAP
0600
0C00
0000
7BC0
8620
3FE0
C400
8400
8A60
71C0
ENDCHAR
STARTCHAR 01FE
ENCODING 510
SWIDTH 792 0
DWIDTH 11 0
BBX 9 13 1 0
BITMAP
0C00
1800
0000
3E80
4300
8300
8480
8880
9080
9080
E080
4100
BE00
ENDCHAR
STARTCHAR 01FF
ENCODING 511
SWIDTH 576 0
DWIDTH 8 0
BBX 6 10 1 0
BITMAP
30
60
00
3C
4C
94
A4
A4
C8
F0
ENDCHAR
STARTCHAR 02C6
ENCODING 710
SWIDTH 432 0
DWIDTH 6 0
BBX 3 2 1 8
BITMAP
40
A0
ENDCHAR
STARTCHAR 02C7
ENCODING 711
SWIDTH 432 0
DWIDTH 6 0
BBX 3 2 1 8
BITMAP
A0
40
ENDCHAR
STARTCHAR 02C9
ENCODING 713
SWIDTH 432 0
DWIDTH 6 0
BBX 4 1 1 8
BITMAP
F0
ENDCHAR
STARTCHAR 02D8
ENCODING 728
SWIDTH 432 0
DWIDTH 6 0
BBX 5 2 1 8
BITMAP
88
70
ENDCHAR
STARTCHAR 02D9
ENCODING 729
SWIDTH 288 0
DWIDTH 4 0
BBX 1 2 1 8
BITMAP
80
80
ENDCHAR
STARTCHAR 02DA
ENCODING 730
SWIDTH 288 0
DWIDTH 4 0
BBX 4 4 1 8
BITMAP
60
90
90
60
ENDCHAR
STARTCHAR 02DB
ENCODING 731
SWIDTH 288 0
DWIDTH 4 0
BBX 2 2 1 -2
BITMAP
80
C0
ENDCHAR
STARTCHAR 02DC
ENCODING 732
SWIDTH 432 0
DWIDTH 6 0
BBX 4 2 1 8
BITMAP
D0
B0
ENDCHAR
STARTCHAR 02DD
ENCODING 733
SWIDTH 360 0
DWIDTH 5 0
BBX 4 2 1 8
BITMAP
50
A0
ENDCHAR
STARTCHAR 037E
ENCODING 894
SWIDTH 288 0
DWIDTH 4 0
BBX 2 9 2 -2
BITMAP
80
80
00
00
00
C0
C0
40
80
ENDCHAR
STARTCHAR 0384
ENCODING 900
SWIDTH 432 0
DWIDTH 6 0
BBX 1 3 3 8
BITMAP
80
80
80
ENDCHAR
STARTCHAR 0385
ENCODING 901
SWIDTH 432 0
DWIDTH 6 0
BBX 5 3 0 8
BITMAP
20
A8
A8
ENDCHAR
STARTCHAR 0386
ENCODING 902
SWIDTH 720 0
DWIDTH 10 0
BBX 9 10 0 0
BITMAP
4800
5400
5400
1400
2200
3E00
2200
4100
4100
E380
ENDCHAR
STARTCHAR 0387
ENCODING 903
SWIDTH 360 0
DWIDTH 5 0
BBX 2 2 1 5
BITMAP
C0
C0
ENDCHAR
STARTCHAR 0388
ENCODING 904
SWIDTH 792 0
DWIDTH 11 0
BBX 10 10 0 0
BITMAP
BF80
9080
9240
1200
1E00
1200
1200
1040
1080
3F80
ENDCHAR
STARTCHAR 0389
ENCODING 905
SWIDTH 864 0
DWIDTH 12 0
BBX 11 10 0 0
BITMAP
B8E0
9040
9040
1040
1FC0
1040
1040
1040
1040
38E0
ENDCHAR
STARTCHAR 038A
ENCODING 906
SWIDTH 432 0
DWIDTH 6 0
BBX 5 10 0 0
BITMAP
B8
90
90
10
10
10
10
10
10
38
ENDCHAR
STARTCHAR 038C
ENCODING 908
SWIDTH 792 0
DWIDTH 11 0
BBX 10 10 0 0
BITMAP
9F00
A080
C040
4040
4040
4040
4040
4040
2080
1F00
ENDCHAR
STARTCHAR 038E
ENCODING 910
SWIDTH 720 0
DWIDTH 10 0
BBX 10 10 0 0
BITMAP
F1C0
A080
9100
1100
0A00
0400
0400
0400
0400
0E00
ENDCHAR
STARTCHAR 038F
ENCODING 911
SWIDTH 792 0
DWIDTH 11 0
BBX 11 10 0 0
BITMAP
9F00
A080
C040
4040
4040
4040
2080
9B20
CA60
7BC0
ENDCHAR
STARTCHAR 0390
ENCODING 912
SWIDTH 288 0
DWIDTH 4 0
BBX 5 11 0 0
BITMAP
20
A8
A8
00
20
60
20
20
20
20
10
ENDCHAR
STARTCHAR 0391
ENCODING 913
SWIDTH 720 0
DWIDTH 10 0
BBX 9 10 0 0
BITMAP
0800
1400
1400
1400
2200
3E00
2200
4100
4100
E380
ENDCHAR
STARTCHAR 0392
ENCODING 914
SWIDTH 720 0
DWIDTH 10 0
BBX 9 10 0 0
BITMAP
FF00
4080
4080
4080
7F00
4080
4080
4080
4080
FF00
ENDCHAR
STARTCHAR 0393
ENCODING 915
SWIDTH 576 0
DWIDTH 8 0
BBX 7 10 1 0
BITMAP
FC
46
42
40
40
40
40
40
40
E0
ENDCHAR
STARTCHAR 0394
ENCODING 916
SWIDTH 576 0
DWIDTH 8 0
BBX 8 10 0 0
BITMAP
18
18
18
24
24
42
42
42
81
FF
ENDCHAR
STARTCHAR 0395
ENCODING 917
SWIDTH 648 0
DWIDTH 9 0
BBX 8 10 1 0
BITMAP
FE
42
49
48
78
48
48
41
42
FE
ENDCHAR
STARTCHAR 0396
ENCODING 918
SWIDTH 648 0
DWIDTH 9 0
BBX 9 10 0 0
BITMAP
7F00
C200
8200
0400
0800
1000
2000
4080
4100
FF00
ENDCHAR
STARTCHAR 0397
ENCODING 919
SWIDTH 792 0
DWIDTH 11 0
BBX 9 10 1 0
BITMAP
E380
4100
4100
4100
7F00
4100
4100
4100
4100
E380
ENDCHAR
STARTCHAR 0398
ENCODING 920
SWIDTH 792 0
DWIDTH 11 0
BBX 9 10 1 0
BITMAP
3E00
4100
8080
A280
BE80
A280
8080
8080
4100
3E00
ENDCHAR
STARTCHAR 0399
ENCODING 921
SWIDTH 360 0
DWIDTH 5 0
BBX 3 10 1 0
BITMAP
E0
40
40
40
40
40
40
40
40
E0
ENDCHAR
STARTCHAR 039A
ENCODING 922
SWIDTH 720 0
DWIDTH 10 0
BBX 9 10 1 0
BITMAP
E780
4200
4400
4800
5000
6800
4400
4200
4200
E780
ENDCHAR
STARTCHAR 039B
ENCODING 923
SWIDTH 720 0
DWIDTH 10 0
BBX 10 10 0 0
BITMAP
0800
1400
1400
1200
2200
2100
2100
4080
4080
E1C0
ENDCHAR
STARTCHAR 039C
ENCODING 924
SWIDTH 936 0
DWIDTH 13 0
BBX 11 10 1 0
BITMAP
E0E0
60C0
60C0
5140
5140
5A40
4A40
4A40
4C40
E4E0
ENDCHAR
STARTCHAR 039D
ENCODING 925
SWIDTH 720 0
DWIDTH 10 0
BBX 8 10 1 0
BITMAP
E7
62
52
52
52
4A
4A
46
46
E2
ENDCHAR
STARTCHAR 039E
ENCODING 926
SWIDTH 720 0
DWIDTH 10 0
BBX 10 10 0 0
BITMAP
7F80
C0C0
8040
1200
1E00
1200
0000
8040
C0C0
7F80
ENDCHAR
STARTCHAR 039F
ENCODING 927
SWIDTH 792 0
DWIDTH 11 0
BBX 9 10 1 0
BITMAP
3E00
4100
8080
8080
8080
8080
8080
8080
4100
3E00
ENDCHAR
STARTCHAR 03A0
ENCODING 928
SWIDTH 792 0
DWIDTH 11 0
BBX 9 10 1 0
BITMAP
FF80
4100
4100
4100
4100
4100
4100
4100
4100
E380
ENDCHAR
STARTCHAR 03A1
ENCODING 929
SWIDTH 648 0
DWIDTH 9 0
BBX 8 10 1 0
BITMAP
FE
41
41
41
41
7E
40
40
40
E0
ENDCHAR
STARTCHAR 03A3
ENCODING 931
SWIDTH 648 0
DWIDTH 9 0
BBX 9 10 0 0
BITMAP
FE00
4300
4100
2000
1000
2000
2000
4080
4180
FF00
ENDCHAR
STARTCHAR 03A4
ENCODING 932
SWIDTH 648 0
DWIDTH 9 0
BBX 9 10 0 0
BITMAP
7F00
C900
8880
0800
0800
0800
0800
0800
0800
1C00
ENDCHAR
STARTCHAR 03A5
ENCODING 933
SWIDTH 648 0
DWIDTH 9 0
BBX 9 10 0 0
BITMAP
E380
4100
2200
2200
1400
0800
0800
0800
0800
1C00
ENDCHAR
STARTCHAR 03A6
ENCODING 934
SWIDTH 792 0
DWIDTH 11 0
BBX 11 10 0 0
BITMAP
0E00
0400
3F80
C460
8420
8420
C460
3F80
0400
0E00
ENDCHAR
STARTCHAR 03A7
ENCODING 935
SWIDTH 720 0
DWIDTH 10 0
BBX 10 10 0 0
BITMAP
F1C0
2100
1200
1200
0C00
0C00
1200
2200
2100
E3C0
ENDCHAR
STARTCHAR 03A8
ENCODING 936
SWIDTH 864 0
DWIDTH 12 0
BBX 11 10 0 0
BITMAP
CE60
4440
4440
4440
4440
2480
1F00
0400
0400
0E00
ENDCHAR
STARTCHAR 03A9
ENCODING 937
SWIDTH 792 0
DWIDTH 11 0
BBX 11 10 0 0
BITMAP
1F00
2080
4040
4040
4040
4040
2080
9B20
CA60
7BC0
ENDCHAR
STARTCHAR 03AA
ENCODING 938
SWIDTH 360 0
DWIDTH 5 0
BBX 3 13 1 0
BITMAP
A0
A0
00
E0
40
40
40
40
40
40
40
40
E0
ENDCHAR
STARTCHAR 03AB
ENCODING 939
SWIDTH 648 0
DWIDTH 9 0
BBX 9 13 0 0
BITMAP
1400
1400
0000
E380
4100
2200
2200
1400
0800
0800
0800
0800
1C00
ENDCHAR
STARTCHAR 03AC
ENCODING 940
SWIDTH 648 0
DWIDTH 9 0
BBX 7 11 1 0
BITMAP
20
20
20
00
34
4C
84
84
84
4C
36
ENDCHAR
STARTCHAR 03AD
ENCODING 941
SWIDTH 504 0
DWIDTH 7 0
BBX 6 11 1 0
BITMAP
20
20
20
00
70
88
80
70
80
84
78
ENDCHAR
STARTCHAR 03AE
ENCODING 942
SWIDTH 648 0
DWIDTH 9 0
BBX 7 14 1 -3
BITMAP
10
10
10
00
5C
E2
42
42
42
42
E2
02
02
02
ENDCHAR
STARTCHAR 03AF
ENCODING 943
SWIDTH 288 0
DWIDTH 4 0
BBX 3 11 1 0
BITMAP
40
40
40
00
40
C0
40
40
40
40
20
ENDCHAR
STARTCHAR 03B0
ENCODING 944
SWIDTH 648 0
DWIDTH 9 0
BBX 7 11 1 0
BITMAP
08
2A
2A
00
C6
42
42
42
42
42
3C
ENDCHAR
STARTCHAR 03B1
ENCODING 945
SWIDTH 648 0
DWIDTH 9 0
BBX 7 7 1 0
BITMAP
34
4C
84
84
84
4C
36
ENDCHAR
STARTCHAR 03B2
ENCODING 946
SWIDTH 648 0
DWIDTH 9 0
BBX 7 13 1 -3
BITMAP
38
44
84
88
B8
84
82
82
C4
B8
80
80
80
ENDCHAR
STARTCHAR 03B3
ENCODING 947
SWIDTH 504 0
DWIDTH 7 0
BBX 7 10 0 -3
BITMAP
C6
42
22
24
28
18
10
10
10
10
ENDCHAR
STARTCHAR 03B4
ENCODING 948
SWIDTH 576 0
DWIDTH 8 0
BBX 6 10 1 0
BITMAP
30
48
40
30
68
84
84
84
48
30
ENDCHAR
STARTCHAR 03B5
ENCODING 949
SWIDTH 504 0
DWIDTH 7 0
BBX 6 7 1 0
BITMAP
70
88
80
70
80
84
78
ENDCHAR
STARTCHAR 03B6
ENCODING 950
SWIDTH 360 0
DWIDTH 5 0
BBX 5 13 0 -3
BITMAP
F8
10
20
40
C0
80
80
80
60
10
08
48
70
ENDCHAR
STARTCHAR 03B7
ENCODING 951
SWIDTH 648 0
DWIDTH 9 0
BBX 7 10 1 -3
BITMAP
5C
E2
42
42
42
42
E2
02
02
02
ENDCHAR
STARTCHAR 03B8
ENCODING 952
SWIDTH 576 0
DWIDTH 8 0
BBX 6 10 1 0
BITMAP
30
48
84
84
FC
84
84
84
48
30
ENDCHAR
STARTCHAR 03B9
ENCODING 953
SWIDTH 288 0
DWIDTH 4 0
BBX 3 7 1 0
BITMAP
40
C0
40
40
40
40
20
ENDCHAR
STARTCHAR 03BA
ENCODING 954
SWIDTH 648 0
DWIDTH 9 0
BBX 8 7 1 0
BITMAP
47
C4
58
68
44
44
E3
ENDCHAR
STARTCHAR 03BB
ENCODING 955
SWIDTH 576 0
DWIDTH 8 0
BBX 7 10 0 0
BITMAP
20
60
10
10
10
28
28
44
44
EE
ENDCHAR
STARTCHAR 03BC
ENCODING 956
SWIDTH 720 0
DWIDTH 10 0
BBX 8 10 1 -3
BITMAP
C6
42
42
42
42
46
7B
40
40
40
ENDCHAR
STARTCHAR 03BD
ENCODING 957
SWIDTH 504 0
DWIDTH 7 0
BBX 6 7 0 0
BITMAP
C4
44
44
28
28
28
10
ENDCHAR
STARTCHAR 03BE
ENCODING 958
SWIDTH 432 0
DWIDTH 6 0
BBX 6 13 0 -3
BITMAP
3C
40
40
3C
40
80
80
80
60
18
04
44
78
ENDCHAR
STARTCHAR 03BF
ENCODING 959
SWIDTH 576 0
DWIDTH 8 0
BBX 6 7 1 0
BITMAP
30
48
84
84
84
48
30
ENDCHAR
STARTCHAR 03C0
ENCODING 960
SWIDTH 648 0
DWIDTH 9 0
BBX 7 7 1 0
BITMAP
FE
44
44
44
44
44
E6
ENDCHAR
STARTCHAR 03C1
ENCODING 961
SWIDTH 576 0
DWIDTH 8 0
BBX 6 10 1 -3
BITMAP
30
48
84
84
84
C8
B0
80
80
80
ENDCHAR
STARTCHAR 03C2
ENCODING 962
SWIDTH 504 0
DWIDTH 7 0
BBX 7 10 0 -3
BITMAP
3C
42
80
80
80
60
18
04
44
78
ENDCHAR
STARTCHAR 03C3
ENCODING 963
SWIDTH 576 0
DWIDTH 8 0
BBX 7 7 1 0
BITMAP
3E
48
84
84
84
48
30
ENDCHAR
STARTCHAR 03C4
ENCODING 964
SWIDTH 432 0
DWIDTH 6 0
BBX 5 7 0 0
BITMAP
F8
20
20
20
20
20
18
ENDCHAR
STARTCHAR 03C5
ENCODING 965
SWIDTH 648 0
DWIDTH 9 0
BBX 7 7 1 0
BITMAP
C6
42
42
42
42
42
3C
ENDCHAR
STARTCHAR 03C6
ENCODING 966
SWIDTH 720 0
DWIDTH 10 0
BBX 9 10 0 -3
BITMAP
2600
4900
8880
8880
8880
4900
3E00
0800
0800
0800
ENDCHAR
STARTCHAR 03C7
ENCODING 967
SWIDTH 576 0
DWIDTH 8 0
BBX 8 7 0 0
BITMAP
C7
26
1C
18
28
44
E3
ENDCHAR
STARTCHAR 03C8
ENCODING 968
SWIDTH 792 0
DWIDTH 11 0
BBX 10 10 0 -3
BITMAP
C4C0
4440
4440
4440
4440
6480
1F00
0400
0400
0400
ENDCHAR
STARTCHAR 03C9
ENCODING 969
SWIDTH 720 0
DWIDTH 10 0
BBX 9 7 0 0
BITMAP
3600
4180
8080
8880
8880
8880
7700
ENDCHAR
STARTCHAR 03CA
ENCODING 970
SWIDTH 288 0
DWIDTH 4 0
BBX 3 10 1 0
BITMAP
A0
A0
00
40
C0
40
40
40
40
20
ENDCHAR
STARTCHAR 03CB
ENCODING 971
SWIDTH 648 0
DWIDTH 9 0
BBX 7 10 1 0
BITMAP
14
14
00
C6
42
42
42
42
42
3C
ENDCHAR
STARTCHAR 03CC
ENCODING 972
SWIDTH 576 0
DWIDTH 8 0
BBX 6 11 1 0
BITMAP
20
20
20
00
30
48
84
84
84
48
30
ENDCHAR
STARTCHAR 03CD
ENCODING 973
SWIDTH 648 0
DWIDTH 9 0
BBX 7 11 1 0
BITMAP
10
10
10
00
C6
42
42
42
42
42
3C
ENDCHAR
STARTCHAR 03CE
ENCODING 974
SWIDTH 720 0
DWIDTH 10 0
BBX 9 11 0 0
BITMAP
0800
0800
0800
0000
3600
4180
8080
8880
8880
8880
7700
ENDCHAR
STARTCHAR 0401
ENCODING 1025
SWIDTH 648 0
DWIDTH 9 0
BBX 8 13 1 0
BITMAP
28
28
00
FE
42
49
48
78
48
48
41
42
FE
ENDCHAR
STARTCHAR 0402
ENCODING 1026
SWIDTH 720 0
DWIDTH 10 0
BBX 10 12 0 -2
BITMAP
7F00
C980
8880
0B00
0C80
0840
0840
0840
0840
1C40
0080
0700
ENDCHAR
STARTCHAR 0403
ENCODING 1027
SWIDTH 576 0
DWIDTH 8 0
BBX 7 13 1 0
BITMAP
18
30
00
FC
46
42
40
40
40
40
40
40
E0
ENDCHAR
STARTCHAR 0404
ENCODING 1028
SWIDTH 720 0
DWIDTH 10 0
BBX 8 10 1 0
BITMAP
3C
43
81
80
F8
80
80
81
42
3C
ENDCHAR
STARTCHAR 0405
ENCODING 1029
SWIDTH 648 0
DWIDTH 9 0
BBX 7 10 1 0
BITMAP
7A
86
82
80
70
0C
02
82
C2
BC
ENDCHAR
STARTCHAR 0406
ENCODING 1030
SWIDTH 360 0
DWIDTH 5 0
BBX 3 10 1 0
BITMAP
E0
40
40
40
40
40
40
40
40
E0
ENDCHAR
STARTCHAR 0407
ENCODING 1031
SWIDTH 360 0
DWIDTH 5 0
BBX 3 13 1 0
BITMAP
A0
A0
00
E0
40
40
40
40
40
40
40
40
E0
ENDCHAR
STARTCHAR 0408
ENCODING 1032
SWIDTH 576 0
DWIDTH 8 0
BBX 7 10 0 0
BITMAP
0E
04
04
04
04
04
84
84
84
78
ENDCHAR
STARTCHAR 0409
ENCODING 1033
SWIDTH 864 0
DWIDTH 12 0
BBX 12 10 0 0
BITMAP
3F00
1200
1200
1200
23E0
2210
2210
4210
4210
E7E0
ENDCHAR
STARTCHAR 040A
ENCODING 1034
SWIDTH 1008 0
DWIDTH 14 0
BBX 13 10 1 0
BITMAP
E380
4100
4100
4100
7FF0
4108
4108
4108
4108
E3F0
ENDCHAR
STARTCHAR 040B
ENCODING 1035
SWIDTH 792 0
DWIDTH 11 0
BBX 11 10 0 0
BITMAP
7F00
C980
8880
0B80
0C40
0840
0840
0840
0840
1CE0
ENDCHAR
STARTCHAR 040C
ENCODING 1036
SWIDTH 720 0
DWIDTH 10 0
BBX 9 13 1 0
BITMAP
0C00
1800
0000
E780
4200
4400
4800
5000
6800
4400
4200
4200
E780
ENDCHAR
STARTCHAR 040E
ENCODING 1038
SWIDTH 648 0
DWIDTH 9 0
BBX 9 13 0 0
BITMAP
2100
1E00
0000
E380
4100
2200
2200
1400
0C00
0800
0800
5000
3000
ENDCHAR
STARTCHAR 040F
ENCODING 1039
SWIDTH 792 0
DWIDTH 11 0
BBX 9 12 1 -2
BITMAP
E380
4100
4100
4100
4100
4100
4100
4100
4100
FF80
0800
0800
ENDCHAR
STARTCHAR 0410
ENCODING 1040
SWIDTH 720 0
DWIDTH 10 0
BBX 9 10 0 0
BITMAP
0800
1400
1400
1400
2200
3E00
2200
4100
4100
E380
ENDCHAR
STARTCHAR 0411
ENCODING 1041
SWIDTH 720 0
DWIDTH 10 0
BBX 8 10 1 0
BITMAP
FC
46
42
40
7E
41
41
41
41
FE
ENDCHAR
STARTCHAR 0412
ENCODING 1042
SWIDTH 720 0
DWIDTH 10 0
BBX 9 10 0 0
BITMAP
FF00
4080
4080
4080
7F00
4080
4080
4080
4080
FF00
ENDCHAR
STARTCHAR 0413
ENCODING 1043
SWIDTH 576 0
DWIDTH 8 0
BBX 7 10 1 0
BITMAP
FC
46
42
40
40
40
40
40
40
E0
ENDCHAR
STARTCHAR 0414
ENCODING 1044
SWIDTH 792 0
DWIDTH 11 0
BBX 11 12 0 -2
BITMAP
1FC0
0880
0880
1080
1080
1080
2080
2080
2080
7FC0
C060
8020
ENDCHAR
STARTCHAR 0415
ENCODING 1045
SWIDTH 648 0
DWIDTH 9 0
BBX 8 10 1 0
BITMAP
FE
42
49
48
78
48
48
41
42
FE
ENDCHAR
STARTCHAR 0416
ENCODING 1046
SWIDTH 1008 0
DWIDTH 14 0
BBX 13 10 0 0
BITMAP
E738
4210
2220
1240
0A80
1740
2260
2220
4210
E738
ENDCHAR
STARTCHAR 0417
ENCODING 1047
SWIDTH 648 0
DWIDTH 9 0
BBX 7 10 1 0
BITMAP
7C
C2
82
02
1C
02
02
82
42
3C
ENDCHAR
STARTCHAR 0418
ENCODING 1048
SWIDTH 792 0
DWIDTH 11 0
BBX 9 10 1 0
BITMAP
E380
4100
4300
4500
4500
4900
5100
6100
4100
E380
ENDCHAR
STARTCHAR 0419
ENCODING 1049
SWIDTH 792 0
DWIDTH 11 0
BBX 9 13 1 0
BITMAP
2200
1C00
0000
E380
4100
4300
4500
4500
4900
5100
6100
4100
E380
ENDCHAR
STARTCHAR 041A
ENCODING 1050
SWIDTH 720 0
DWIDTH 10 0
BBX 9 10 1 0
BITMAP
E780
4200
4400
4800
5000
6800
4400
4200
4200
E780
ENDCHAR
STARTCHAR 041B
ENCODING 1051
SWIDTH 720 0
DWIDTH 10 0
BBX 10 10 0 0
BITMAP
0800
1400
1400
1200
2200
2100
2100
4080
4080
E1C0
ENDCHAR
STARTCHAR 041C
ENCODING 1052
SWIDTH 936 0
DWIDTH 13 0
BBX 11 10 1 0
BITMAP
E0E0
60C0
60C0
5140
5140
5A40
4A40
4A40
4C40
E4E0
ENDCHAR
STARTCHAR 041D
ENCODING 1053
SWIDTH 792 0
DWIDTH 11 0
BBX 9 10 1 0
BITMAP
E380
4100
4100
4100
7F00
4100
4100
4100
4100
E380
ENDCHAR
STARTCHAR 041E
ENCODING 1054
SWIDTH 792 0
DWIDTH 11 0
BBX 9 10 1 0
BITMAP
3E00
4100
8080
8080
8080
8080
8080
8080
4100
3E00
ENDCHAR
STARTCHAR 041F
ENCODING 1055
SWIDTH 792 0
DWIDTH 11 0
BBX 9 10 1 0
BITMAP
FF80
4100
4100
4100
4100
4100
4100
4100
4100
E380
ENDCHAR
STARTCHAR 0420
ENCODING 1056
SWIDTH 648 0
DWIDTH 9 0
BBX 8 10 1 0
BITMAP
FE
41
41
41
41
7E
40
40
40
E0
ENDCHAR
STARTCHAR 0421
ENCODING 1057
SWIDTH 720 0
DWIDTH 10 0
BBX 9 10 1 0
BITMAP
3E80
4180
8080
8000
8000
8000
8000
8080
4100
3E00
ENDCHAR
STARTCHAR 0422
ENCODING 1058
SWIDTH 648 0
DWIDTH 9 0
BBX 9 10 0 0
BITMAP
7F00
C900
8880
0800
0800
0800
0800
0800
0800
1C00
ENDCHAR
STARTCHAR 0423
ENCODING 1059
SWIDTH 648 0
DWIDTH 9 0
BBX 9 10 0 0
BITMAP
E380
4100
2200
2200
1400
0C00
0800
0800
5000
3000
ENDCHAR
STARTCHAR 0424
ENCODING 1060
SWIDTH 792 0
DWIDTH 11 0
BBX 11 10 0 0
BITMAP
0E00
0400
3F80
4440
8420
8420
4440
3F80
0400
0E00
ENDCHAR
STARTCHAR 0425
ENCODING 1061
SWIDTH 720 0
DWIDTH 10 0
BBX 10 10 0 0
BITMAP
F1C0
2100
1200
1200
0C00
0C00
1200
2200
2100
E3C0
ENDCHAR
STARTCHAR 0426
ENCODING 1062
SWIDTH 792 0
DWIDTH 11 0
BBX 10 12 1 -2
BITMAP
E380
4100
4100
4100
4100
4100
4100
4100
4100
FF80
00C0
0040
ENDCHAR
STARTCHAR 0427
ENCODING 1063
SWIDTH 720 0
DWIDTH 10 0
BBX 9 10 0 0
BITMAP
E380
4100
4100
4100
4100
3F00
0100
0100
0100
0380
ENDCHAR
STARTCHAR 0428
ENCODING 1064
SWIDTH 1080 0
DWIDTH 15 0
BBX 13 10 1 0
BITMAP
E738
4210
4210
4210
4210
4210
4210
4210
4210
FFF8
ENDCHAR
STARTCHAR 0429
ENCODING 1065
SWIDTH 1080 0
DWIDTH 15 0
BBX 14 12 1 -2
BITMAP
E738
4210
4210
4210
4210
4210
4210
4210
4210
FFF8
000C
0004
ENDCHAR
STARTCHAR 042A
ENCODING 1066
SWIDTH 792 0
DWIDTH 11 0
BBX 11 10 0 0
BITMAP
7C00
C800
8800
0800
0FC0
0820
0820
0820
0820
1FC0
ENDCHAR
STARTCHAR 042B
ENCODING 1067
SWIDTH 1008 0
DWIDTH 14 0
BBX 12 10 1 0
BITMAP
E070
4020
4020
4020
7E20
4120
4120
4120
4120
FE70
ENDCHAR
STARTCHAR 042C
ENCODING 1068
SWIDTH 648 0
DWIDTH 9 0
BBX 8 10 1 0
BITMAP
E0
40
40
40
7E
41
41
41
41
FE
ENDCHAR
STARTCHAR 042D
ENCODING 1069
SWIDTH 720 0
DWIDTH 10 0
BBX 8 10 1 0
BITMAP
7C
C2
81
01
1F
01
01
81
42
3C
ENDCHAR
STARTCHAR 042E
ENCODING 1070
SWIDTH 1152 0
DWIDTH 16 0
BBX 14 10 1 0
BITMAP
E1F0
4208
4404
4404
7C04
4404
4404
4404
4208
E1F0
ENDCHAR
STARTCHAR 042F
ENCODING 1071
SWIDTH 720 0
DWIDTH 10 0
BBX 8 10 1 0
BITMAP
7F
82
82
82
7E
12
22
22
42
87
ENDCHAR
STARTCHAR 0430
ENCODING 1072
SWIDTH 576 0
DWIDTH 8 0
BBX 7 7 1 0
BITMAP
78
84
3C
44
84
8C
76
ENDCHAR
STARTCHAR 0431
ENCODING 1073
SWIDTH 576 0
DWIDTH 8 0
BBX 6 11 1 0
BITMAP
04
38
40
80
B0
C8
84
84
84
48
30
ENDCHAR
STARTCHAR 0432
ENCODING 1074
SWIDTH 576 0
DWIDTH 8 0
BBX 6 7 1 0
BITMAP
F8
44
44
78
44
44
F8
ENDCHAR
STARTCHAR 0433
ENCODING 1075
SWIDTH 432 0
DWIDTH 6 0
BBX 5 7 1 0
BITMAP
F0
58
48
40
40
40
E0
ENDCHAR
STARTCHAR 0434
ENCODING 1076
SWIDTH 648 0
DWIDTH 9 0
BBX 9 9 0 -2
BITMAP
3F00
1200
1200
2200
2200
2200
7F00
C180
8080
ENDCHAR
STARTCHAR 0435
ENCODING 1077
SWIDTH 576 0
DWIDTH 8 0
BBX 6 7 1 0
BITMAP
38
44
FC
80
80
44
38
ENDCHAR
STARTCHAR 0436
ENCODING 1078
SWIDTH 864 0
DWIDTH 12 0
BBX 11 7 0 0
BITMAP
EEE0
2480
1500
1F00
2480
4440
EEE0
ENDCHAR
STARTCHAR 0437
ENCODING 1079
SWIDTH 504 0
DWIDTH 7 0
BBX 5 7 1 0
BITMAP
78
88
08
30
08
88
70
ENDCHAR
STARTCHAR 0438
ENCODING 1080
SWIDTH 648 0
DWIDTH 9 0
BBX 7 7 1 0
BITMAP
EE
44
4C
54
64
44
EE
ENDCHAR
STARTCHAR 0439
ENCODING 1081
SWIDTH 648 0
DWIDTH 9 0
BBX 7 10 1 0
BITMAP
44
38
00
EE
44
4C
54
64
44
EE
ENDCHAR
STARTCHAR 043A
ENCODING 1082
SWIDTH 648 0
DWIDTH 9 0
BBX 8 7 1 0
BITMAP
E7
44
58
68
48
44
EF
ENDCHAR
STARTCHAR 043B
ENCODING 1083
SWIDTH 504 0
DWIDTH 7 0
BBX 7 7 0 0
BITMAP
10
28
28
28
44
44
EE
ENDCHAR
STARTCHAR 043C
ENCODING 1084
SWIDTH 792 0
DWIDTH 11 0
BBX 9 7 1 0
BITMAP
E380
6300
5500
5500
5500
4900
EB80
ENDCHAR
STARTCHAR 043D
ENCODING 1085
SWIDTH 648 0
DWIDTH 9 0
BBX 7 7 1 0
BITMAP
EE
44
44
7C
44
44
EE
ENDCHAR
STARTCHAR 043E
ENCODING 1086
SWIDTH 576 0
DWIDTH 8 0
BBX 6 7 1 0
BITMAP
30
48
84
84
84
48
30
ENDCHAR
STARTCHAR 043F
ENCODING 1087
SWIDTH 648 0
DWIDTH 9 0
BBX 7 7 1 0
BITMAP
FE
44
44
44
44
44
EE
ENDCHAR
STARTCHAR 0440
ENCODING 1088
SWIDTH 576 0
DWIDTH 8 0
BBX 7 10 0 -3
BITMAP
58
E4
42
42
42
64
58
40
40
E0
ENDCHAR
STARTCHAR 0441
ENCODING 1089
SWIDTH 576 0
DWIDTH 8 0
BBX 6 7 1 0
BITMAP
38
44
80
80
80
44
38
ENDCHAR
STARTCHAR 0442
ENCODING 1090
SWIDTH 504 0
DWIDTH 7 0
BBX 7 7 0 0
BITMAP
7C
D6
92
10
10
10
38
ENDCHAR
STARTCHAR 0443
ENCODING 1091
SWIDTH 576 0
DWIDTH 8 0
BBX 8 10 0 -3
BITMAP
E7
42
22
24
14
18
08
10
90
E0
ENDCHAR
STARTCHAR 0444
ENCODING 1092
SWIDTH 864 0
DWIDTH 12 0
BBX 11 13 0 -3
BITMAP
0400
0C00
0400
3580
4E40
8420
8420
8420
4E40
3580
0400
0400
0E00
ENDCHAR
STARTCHAR 0445
ENCODING 1093
SWIDTH 576 0
DWIDTH 8 0
BBX 8 7 0 0
BITMAP
F7
24
18
10
28
24
E7
ENDCHAR
STARTCHAR 0446
ENCODING 1094
SWIDTH 648 0
DWIDTH 9 0
BBX 8 9 1 -2
BITMAP
EE
44
44
44
44
44
FE
03
01
ENDCHAR
STARTCHAR 0447
ENCODING 1095
SWIDTH 576 0
DWIDTH 8 0
BBX 7 7 0 0
BITMAP
EE
44
44
3C
04
04
0E
ENDCHAR
STARTCHAR 0448
ENCODING 1096
SWIDTH 936 0
DWIDTH 13 0
BBX 11 7 1 0
BITMAP
EEE0
4440
4440
4440
4440
4440
FFE0
ENDCHAR
STARTCHAR 0449
ENCODING 1097
SWIDTH 936 0
DWIDTH 13 0
BBX 12 9 1 -2
BITMAP
EEE0
4440
4440
4440
4440
4440
FFE0
0030
0010
ENDCHAR
STARTCHAR 044A
ENCODING 1098
SWIDTH 648 0
DWIDTH 9 0
BBX 8 7 0 0
BITMAP
78
D0
90
1E
11
11
3E
ENDCHAR
STARTCHAR 044B
ENCODING 1099
SWIDTH 792 0
DWIDTH 11 0
BBX 10 7 0 0
BITMAP
E1C0
4080
4080
7880
4480
4480
F9C0
ENDCHAR
STARTCHAR 044C
ENCODING 1100
SWIDTH 504 0
DWIDTH 7 0
BBX 5 7 1 0
BITMAP
E0
40
40
70
48
48
F0
ENDCHAR
STARTCHAR 044D
ENCODING 1101
SWIDTH 504 0
DWIDTH 7 0
BBX 6 7 0 0
BITMAP
70
88
04
3C
04
88
70
ENDCHAR
STARTCHAR 044E
ENCODING 1102
SWIDTH 864 0
DWIDTH 12 0
BBX 10 7 1 0
BITMAP
E300
4480
4840
7840
4840
4480
E300
ENDCHAR
STARTCHAR 044F
ENCODING 1103
SWIDTH 576 0
DWIDTH 8 0
BBX 7 7 0 0
BITMAP
3E
44
44
3C
24
44
EE
ENDCHAR
STARTCHAR 0451
ENCODING 1105
SWIDTH 576 0
DWIDTH 8 0
BBX 6 10 1 0
BITMAP
28
28
00
38
44
FC
80
80
44
38
ENDCHAR
STARTCHAR 0452
ENCODING 1106
SWIDTH 576 0
DWIDTH 8 0
BBX 6 12 1 -2
BITMAP
40
C0
F8
58
64
44
44
44
44
E4
08
30
ENDCHAR
STARTCHAR 0453
ENCODING 1107
SWIDTH 432 0
DWIDTH 6 0
BBX 5 10 1 0
BITMAP
30
60
00
F0
58
48
40
40
40
E0
ENDCHAR
STARTCHAR 0454
ENCODING 1108
SWIDTH 504 0
DWIDTH 7 0
BBX 6 7 0 0
BITMAP
38
44
80
F0
80
44
38
ENDCHAR
STARTCHAR 0455
ENCODING 1109
SWIDTH 504 0
DWIDTH 7 0
BBX 5 7 1 0
BITMAP
68
98
80
70
08
C8
B0
ENDCHAR
STARTCHAR 0456
ENCODING 1110
SWIDTH 360 0
DWIDTH 5 0
BBX 3 10 1 0
BITMAP
40
40
00
40
C0
40
40
40
40
E0
ENDCHAR
STARTCHAR 0457
ENCODING 1111
SWIDTH 288 0
DWIDTH 4 0
BBX 3 10 0 0
BITMAP
A0
A0
00
40
C0
40
40
40
40
E0
ENDCHAR
STARTCHAR 0458
ENCODING 1112
SWIDTH 288 0
DWIDTH 4 0
BBX 4 13 -1 -3
BITMAP
10
10
00
10
30
10
10
10
10
10
10
90
E0
ENDCHAR
STARTCHAR 0459
ENCODING 1113
SWIDTH 720 0
DWIDTH 10 0
BBX 9 7 0 0
BITMAP
7E00
2400
2400
2700
4480
4480
EF00
ENDCHAR
STARTCHAR 045A
ENCODING 1114
SWIDTH 864 0
DWIDTH 12 0
BBX 10 7 1 0
BITMAP
E700
4200
4200
7F80
4240
4240
E780
ENDCHAR
STARTCHAR 045B
ENCODING 1115
SWIDTH 648 0
DWIDTH 9 0
BBX 8 10 0 0
BITMAP
40
C0
FC
5C
62
42
42
42
42
E7
ENDCHAR
STARTCHAR 045C
ENCODING 1116
SWIDTH 648 0
DWIDTH 9 0
BBX 8 10 1 0
BITMAP
0C
18
00
E7
44
58
68
48
44
EF
ENDCHAR
STARTCHAR 045E
ENCODING 1118
SWIDTH 576 0
DWIDTH 8 0
BBX 8 13 0 -3
BITMAP
42
3C
00
E7
42
24
24
28
18
18
10
90
E0
ENDCHAR
STARTCHAR 045F
ENCODING 1119
SWIDTH 648 0
DWIDTH 9 0
BBX 7 9 1 -2
BITMAP
EE
44
44
44
44
44
FE
10
10
ENDCHAR
STARTCHAR 0490
ENCODING 1168
SWIDTH 504 0
DWIDTH 7 0
BBX 6 12 1 0
BITMAP
04
0C
F8
40
40
40
40
40
40
40
40
E0
ENDCHAR
STARTCHAR 0491
ENCODING 1169
SWIDTH 432 0
DWIDTH 6 0
BBX 5 9 1 0
BITMAP
08
18
F0
40
40
40
40
40
E0
ENDCHAR
STARTCHAR 1E80
ENCODING 7808
SWIDTH 936 0
DWIDTH 13 0
BBX 14 13 0 0
BITMAP
0300
0180
0000
F39C
4108
2108
2288
2290
1290
1450
1450
1860
0820
ENDCHAR
STARTCHAR 1E81
ENCODING 7809
SWIDTH 792 0
DWIDTH 11 0
BBX 11 10 0 0
BITMAP
0C00
0600
0000
EEE0
4440
4440
2A80
2A80
2A80
1100
ENDCHAR
STARTCHAR 1E82
ENCODING 7810
SWIDTH 936 0
DWIDTH 13 0
BBX 14 13 0 0
BITMAP
00C0
0180
0000
F39C
4108
2108
2288
2290
1290
1450
1450
1860
0820
ENDCHAR
STARTCHAR 1E83
ENCODING 7811
SWIDTH 792 0
DWIDTH 11 0
BBX 11 10 0 0
BITMAP
0600
0C00
0000
EEE0
4440
4440
2A80
2A80
2A80
1100
ENDCHAR
STARTCHAR 1E84
ENCODING 7812
SWIDTH 936 0
DWIDTH 13 0
BBX 14 13 0 0
BITMAP
0280
0280
0000
F39C
4108
2108
2288
2290
1290
1450
1450
1860
0820
ENDCHAR
STARTCHAR 1E85
ENCODING 7813
SWIDTH 792 0
DWIDTH 11 0
BBX 11 10 0 0
BITMAP
0A00
0A00
0000
EEE0
4440
4440
2A80
2A80
2A80
1100
ENDCHAR
STARTCHAR 1EF2
ENCODING 7922
SWIDTH 648 0
DWIDTH 9 0
BBX 9 13 0 0
BITMAP
1800
0C00
0000
E380
4100
2200
2200
1400
0800
0800
0800
0800
1C00
ENDCHAR
STARTCHAR 1EF3
ENCODING 7923
SWIDTH 576 0
DWIDTH 8 0
BBX 8 13 0 -3
BITMAP
18
0C
00
E7
42
22
24
14
18
08
10
90
E0
ENDCHAR
STARTCHAR 2013
ENCODING 8211
SWIDTH 504 0
DWIDTH 7 0
BBX 7 1 0 3
BITMAP
FE
ENDCHAR
STARTCHAR 2014
ENCODING 8212
SWIDTH 1008 0
DWIDTH 14 0
BBX 14 1 0 3
BITMAP
FFFC
ENDCHAR
STARTCHAR 2015
ENCODING 8213
SWIDTH 792 0
DWIDTH 11 0
BBX 11 1 0 3
BITMAP
FFE0
ENDCHAR
STARTCHAR 2017
ENCODING 8215
SWIDTH 504 0
DWIDTH 7 0
BBX 7 3 0 -3
BITMAP
FE
00
FE
ENDCHAR
STARTCHAR 2018
ENCODING 8216
SWIDTH 216 0
DWIDTH 3 0
BBX 2 4 1 6
BITMAP
40
80
C0
C0
ENDCHAR
STARTCHAR 2019
ENCODING 8217
SWIDTH 216 0
DWIDTH 3 0
BBX 2 4 1 6
BITMAP
C0
C0
40
80
ENDCHAR
STARTCHAR 201A
ENCODING 8218
SWIDTH 216 0
DWIDTH 3 0
BBX 2 4 1 -2
BITMAP
C0
C0
40
80
ENDCHAR
STARTCHAR 201B
ENCODING 8219
SWIDTH 216 0
DWIDTH 3 0
BBX 2 4 0 6
BITMAP
C0
C0
80
40
ENDCHAR
STARTCHAR 201C
ENCODING 8220
SWIDTH 432 0
DWIDTH 6 0
BBX 5 4 0 6
BITMAP
48
90
D8
D8
ENDCHAR
STARTCHAR 201D
ENCODING 8221
SWIDTH 432 0
DWIDTH 6 0
BBX 5 4 0 6
BITMAP
D8
D8
48
90
ENDCHAR
STARTCHAR 201E
ENCODING 8222
SWIDTH 432 0
DWIDTH 6 0
BBX 5 4 0 -2
BITMAP
D8
D8
48
90
ENDCHAR
STARTCHAR 2020
ENCODING 8224
SWIDTH 576 0
DWIDTH 8 0
BBX 5 12 1 -2
BITMAP
20
20
20
F8
20
20
20
20
20
20
20
20
ENDCHAR
STARTCHAR 2021
ENCODING 8225
SWIDTH 576 0
DWIDTH 8 0
BBX 5 12 1 -2
BITMAP
20
20
20
F8
20
20
20
20
F8
20
20
20
ENDCHAR
STARTCHAR 2022
ENCODING 8226
SWIDTH 432 0
DWIDTH 6 0
BBX 4 4 1 3
BITMAP
60
F0
F0
60
ENDCHAR
STARTCHAR 2026
ENCODING 8230
SWIDTH 1008 0
DWIDTH 14 0
BBX 9 2 2 0
BITMAP
8880
8880
ENDCHAR
STARTCHAR 2030
ENCODING 8240
SWIDTH 1368 0
DWIDTH 19 0
BBX 18 10 0 0
BITMAP
708000
888000
890000
890000
720000
04E380
051440
091440
111440
10E380
ENDCHAR
STARTCHAR 2032
ENCODING 8242
SWIDTH 216 0
DWIDTH 3 0
BBX 2 4 1 6
BITMAP
40
40
80
80
ENDCHAR
STARTCHAR 2033
ENCODING 8243
SWIDTH 360 0
DWIDTH 5 0
BBX 5 4 0 6
BITMAP
48
48
90
90
ENDCHAR
STARTCHAR 2039
ENCODING 8249
SWIDTH 216 0
DWIDTH 3 0
BBX 2 4 1 1
BITMAP
40
80
80
40
ENDCHAR
STARTCHAR 203A
ENCODING 8250
SWIDTH 216 0
DWIDTH 3 0
BBX 2 4 1 1
BITMAP
80
40
40
80
ENDCHAR
STARTCHAR 203C
ENCODING 8252
SWIDTH 576 0
DWIDTH 8 0
BBX 4 10 2 0
BITMAP
90
90
90
90
90
90
90
00
90
90
ENDCHAR
STARTCHAR 203E
ENCODING 8254
SWIDTH 648 0
DWIDTH 9 0
BBX 9 1 0 12
BITMAP
FF80
ENDCHAR
STARTCHAR 2044
ENCODING 8260
SWIDTH 144 0
DWIDTH 2 0
BBX 5 10 -2 0
BITMAP
08
08
10
10
20
20
40
40
80
80
ENDCHAR
STARTCHAR 207F
ENCODING 8319
SWIDTH 432 0
DWIDTH 6 0
BBX 6 4 0 4
BITMAP
D8
68
48
EC
ENDCHAR
STARTCHAR 20A3
ENCODING 8355
SWIDTH 648 0
DWIDTH 9 0
BBX 8 10 1 0
BITMAP
FE
43
41
48
48
78
48
E8
40
E0
ENDCHAR
STARTCHAR 20A4
ENCODING 8356
SWIDTH 648 0
DWIDTH 9 0
BBX 9 10 0 0
BITMAP
1E00
2100
2100
FC00
2000
FC00
7080
9080
9900
6700
ENDCHAR
STARTCHAR 20A7
ENCODING 8359
SWIDTH 1368 0
DWIDTH 19 0
BBX 18 10 1 0
BITMAP
FE0000
434000
414000
41FF80
4348C0
7E4C00
404300
4040C0
404C40
E07780
ENDCHAR
STARTCHAR 20AC
ENCODING 8364
SWIDTH 648 0
DWIDTH 9 0
BBX 8 10 0 0
BITMAP
1E
23
41
FC
40
FC
40
41
22
1C
ENDCHAR
STARTCHAR 2105
ENCODING 8453
SWIDTH 864 0
DWIDTH 12 0
BBX 11 10 1 0
BITMAP
7080
9100
8200
7200
0400
0400
08C0
1120
1120
20C0
ENDCHAR
STARTCHAR 2113
ENCODING 8467
SWIDTH 432 0
DWIDTH 6 0
BBX 5 10 0 0
BITMAP
30
50
50
50
60
40
C0
48
48
30
ENDCHAR
STARTCHAR 2116
ENCODING 8470
SWIDTH 1080 0
DWIDTH 15 0
BBX 13 10 1 0
BITMAP
E380
6100
5100
5130
4948
4548
4548
4330
4300
E178
ENDCHAR
STARTCHAR 2122
ENCODING 8482
SWIDTH 1008 0
DWIDTH 14 0
BBX 14 6 0 4
BITMAP
FE0C
AB18
2298
22A8
2268
775C
ENDCHAR
STARTCHAR 2126
ENCODING 8486
SWIDTH 792 0
DWIDTH 11 0
BBX 10 10 0 0
BITMAP
3F00
4080
8040
8040
8040
8040
8040
4180
A240
E3C0
ENDCHAR
STARTCHAR 212E
ENCODING 8494
SWIDTH 576 0
DWIDTH 8 0
BBX 6 8 1 0
BITMAP
78
88
84
FC
80
80
8C
78
ENDCHAR
STARTCHAR 215B
ENCODING 8539
SWIDTH 936 0
DWIDTH 13 0
BBX 11 10 1 0
BITMAP
C100
4100
4200
4200
E400
04C0
0920
08C0
1120
10C0
ENDCHAR
STARTCHAR 215C
ENCODING 8540
SWIDTH 936 0
DWIDTH 13 0
BBX 12 10 0 0
BITMAP
F080
1080
6100
1100
F200
0260
0490
0460
0890
0860
ENDCHAR
STARTCHAR 215D
ENCODING 8541
SWIDTH 936 0
DWIDTH 13 0
BBX 12 10 0 0
BITMAP
F080
8080
E100
9100
6200
0260
0490
0460
0890
0860
ENDCHAR
STARTCHAR 215E
ENCODING 8542
SWIDTH 936 0
DWIDTH 13 0
BBX 11 10 1 0
BITMAP
F200
A200
2400
4400
4800
08C0
1120
10C0
2120
20C0
ENDCHAR
STARTCHAR 2190
ENCODING 8592
SWIDTH 1008 0
DWIDTH 14 0
BBX 13 5 1 1
BITMAP
2000
4000
FFF8
4000
2000
ENDCHAR
STARTCHAR 2191
ENCODING 8593
SWIDTH 504 0
DWIDTH 7 0
BBX 5 13 1 -3
BITMAP
20
70
A8
20
20
20
20
20
20
20
20
20
20
ENDCHAR
STARTCHAR 2192
ENCODING 8594
SWIDTH 1008 0
DWIDTH 14 0
BBX 13 5 1 1
BITMAP
0020
0010
FFF8
0010
0020
ENDCHAR
STARTCHAR 2193
ENCODING 8595
SWIDTH 504 0
DWIDTH 7 0
BBX 5 13 1 -3
BITMAP
20
20
20
20
20
20
20
20
20
20
A8
70
20
ENDCHAR
STARTCHAR 2194
ENCODING 8596
SWIDTH 1008 0
DWIDTH 14 0
BBX 13 5 1 1
BITMAP
2020
4010
FFF8
4010
2020
ENDCHAR
STARTCHAR 2195
ENCODING 8597
SWIDTH 504 0
DWIDTH 7 0
BBX 5 13 1 -3
BITMAP
20
70
A8
20
20
20
20
20
20
20
A8
70
20
ENDCHAR
STARTCHAR 21A8
ENCODING 8616
SWIDTH 504 0
DWIDTH 7 0
BBX 5 15 1 -5
BITMAP
20
70
A8
20
20
20
20
20
20
20
A8
70
20
00
F8
ENDCHAR
STARTCHAR 2202
ENCODING 8706
SWIDTH 504 0
DWIDTH 7 0
BBX 6 10 1 0
BITMAP
78
44
04
34
4C
84
84
88
98
70
ENDCHAR
STARTCHAR 2206
ENCODING 8710
SWIDTH 648 0
DWIDTH 9 0
BBX 9 10 0 0
BITMAP
0800
0800
1400
1400
3400
2200
2200
4100
4100
FF80
ENDCHAR
STARTCHAR 220F
ENCODING 8719
SWIDTH 864 0
DWIDTH 12 0
BBX 11 13 0 -3
BITMAP
FFE0
4040
4040
4040
4040
4040
4040
4040
4040
4040
4040
4040
E0E0
ENDCHAR
STARTCHAR 2211
ENCODING 8721
SWIDTH 720 0
DWIDTH 10 0
BBX 10 13 0 -3
BITMAP
FF80
4080
2080
2000
1000
0800
0400
0800
1000
2000
2040
40C0
FFC0
ENDCHAR
STARTCHAR 2212
ENCODING 8722
SWIDTH 576 0
DWIDTH 8 0
BBX 6 1 1 4
BITMAP
FC
ENDCHAR
STARTCHAR 2215
ENCODING 8725
SWIDTH 144 0
DWIDTH 2 0
BBX 5 10 -2 0
BITMAP
08
08
10
10
20
20
40
40
80
80
ENDCHAR
STARTCHAR 2219
ENCODING 8729
SWIDTH 288 0
DWIDTH 4 0
BBX 1 2 2 4
BITMAP
80
80
ENDCHAR
STARTCHAR 221A
ENCODING 8730
SWIDTH 576 0
DWIDTH 8 0
BBX 7 13 1 0
BITMAP
02
02
02
04
04
C4
44
24
28
18
18
08
08
ENDCHAR
STARTCHAR 221E
ENCODING 8734
SWIDTH 720 0
DWIDTH 10 0
BBX 9 6 0 1
BITMAP
7700
8880
8880
8880
9880
7700
ENDCHAR
STARTCHAR 221F
ENCODING 8735
SWIDTH 1008 0
DWIDTH 14 0
BBX 9 9 2 0
BITMAP
8000
8000
8000
8000
8000
8000
8000
8000
FF80
ENDCHAR
STARTCHAR 2229
ENCODING 8745
SWIDTH 720 0
DWIDTH 10 0
BBX 8 10 1 0
BITMAP
3C
42
81
81
81
81
81
81
81
81
ENDCHAR
STARTCHAR 222B
ENCODING 8747
SWIDTH 288 0
DWIDTH 4 0
BBX 4 14 0 -1
BITMAP
30
50
40
40
40
40
40
40
40
40
40
40
40
80
ENDCHAR
STARTCHAR 2248
ENCODING 8776
SWIDTH 576 0
DWIDTH 8 0
BBX 7 5 0 2
BITMAP
72
9C
00
72
9C
ENDCHAR
STARTCHAR 2260
ENCODING 8800
SWIDTH 576 0
DWIDTH 8 0
BBX 7 7 0 1
BITMAP
04
04
FE
10
FE
40
40
ENDCHAR
STARTCHAR 2261
ENCODING 8801
SWIDTH 576 0
DWIDTH 8 0
BBX 7 5 1 3
BITMAP
FE
00
FE
00
FE
ENDCHAR
STARTCHAR 2264
ENCODING 8804
SWIDTH 576 0
DWIDTH 8 0
BBX 6 9 1 1
BITMAP
04
18
60
80
60
18
04
00
FC
ENDCHAR
STARTCHAR 2265
ENCODING 8805
SWIDTH 576 0
DWIDTH 8 0
BBX 6 9 1 1
BITMAP
80
60
18
04
18
60
80
00
FC
ENDCHAR
STARTCHAR 2302
ENCODING 8962
SWIDTH 576 0
DWIDTH 8 0
BBX 6 8 1 0
BITMAP
10
30
48
84
84
84
84
FC
ENDCHAR
STARTCHAR 2310
ENCODING 8976
SWIDTH 576 0
DWIDTH 8 0
BBX 7 5 1 0
BITMAP
FE
80
80
80
80
ENDCHAR
STARTCHAR 2320
ENCODING 8992
SWIDTH 576 0
DWIDTH 8 0
BBX 3 16 4 -4
BITMAP
60
80
80
80
80
80
80
80
80
80
80
80
80
80
80
80
ENDCHAR
STARTCHAR 2321
ENCODING 8993
SWIDTH 576 0
DWIDTH 8 0
BBX 3 15 2 -3
BITMAP
20
20
20
20
20
20
20
20
20
20
20
20
20
20
C0
ENDCHAR
STARTCHAR 2500
ENCODING 9472
SWIDTH 720 0
DWIDTH 10 0
BBX 10 1 0 4
BITMAP
FFC0
ENDCHAR
STARTCHAR 2502
ENCODING 9474
SWIDTH 648 0
DWIDTH 9 0
BBX 1 17 3 -4
BITMAP
80
80
80
80
80
80
80
80
80
80
80
80
80
80
80
80
80
ENDCHAR
STARTCHAR 250C
ENCODING 9484
SWIDTH 720 0
DWIDTH 10 0
BBX 6 9 4 -4
BITMAP
FC
C0
C0
C0
C0
C0
C0
C0
C0
ENDCHAR
STARTCHAR 2510
ENCODING 9488
SWIDTH 720 0
DWIDTH 10 0
BBX 6 9 0 -4
BITMAP
FC
0C
0C
0C
0C
0C
0C
0C
0C
ENDCHAR
STARTCHAR 2514
ENCODING 9492
SWIDTH 720 0
DWIDTH 10 0
BBX 6 9 4 4
BITMAP
C0
C0
C0
C0
C0
C0
C0
C0
FC
ENDCHAR
STARTCHAR 2518
ENCODING 9496
SWIDTH 720 0
DWIDTH 10 0
BBX 6 9 0 4
BITMAP
0C
0C
0C
0C
0C
0C
0C
0C
FC
ENDCHAR
STARTCHAR 251C
ENCODING 9500
SWIDTH 720 0
DWIDTH 10 0
BBX 6 17 4 -4
BITMAP
C0
C0
C0
C0
C0
C0
C0
C0
FC
C0
C0
C0
C0
C0
C0
C0
C0
ENDCHAR
STARTCHAR 2524
ENCODING 9508
SWIDTH 720 0
DWIDTH 10 0
BBX 6 17 0 -4
BITMAP
0C
0C
0C
0C
0C
0C
0C
0C
FC
0C
0C
0C
0C
0C
0C
0C
0C
ENDCHAR
STARTCHAR 252C
ENCODING 9516
SWIDTH 720 0
DWIDTH 10 0
BBX 10 9 0 -4
BITMAP
FFC0
0C00
0C00
0C00
0C00
0C00
0C00
0C00
0C00
ENDCHAR
STARTCHAR 2534
ENCODING 9524
SWIDTH 720 0
DWIDTH 10 0
BBX 10 9 0 4
BITMAP
0C00
0C00
0C00
0C00
0C00
0C00
0C00
0C00
FFC0
ENDCHAR
STARTCHAR 253C
ENCODING 9532
SWIDTH 720 0
DWIDTH 10 0
BBX 10 17 0 -4
BITMAP
0C00
0C00
0C00
0C00
0C00
0C00
0C00
0C00
FFC0
0C00
0C00
0C00
0C00
0C00
0C00
0C00
0C00
ENDCHAR
STARTCHAR 2550
ENCODING 9552
SWIDTH 720 0
DWIDTH 10 0
BBX 10 4 0 2
BITMAP
FFC0
0000
FFC0
FFC0
ENDCHAR
STARTCHAR 2551
ENCODING 9553
SWIDTH 720 0
DWIDTH 10 0
BBX 4 17 3 -4
BITMAP
90
90
90
90
90
90
90
90
90
90
90
90
90
90
90
90
90
ENDCHAR
STARTCHAR 2552
ENCODING 9554
SWIDTH 720 0
DWIDTH 10 0
BBX 6 10 4 -4
BITMAP
FC
C0
FC
FC
C0
C0
C0
C0
C0
C0
ENDCHAR
STARTCHAR 2553
ENCODING 9555
SWIDTH 720 0
DWIDTH 10 0
BBX 7 9 3 -4
BITMAP
FE
90
90
90
90
90
90
90
90
ENDCHAR
STARTCHAR 2554
ENCODING 9556
SWIDTH 720 0
DWIDTH 10 0
BBX 7 10 3 -4
BITMAP
FE
80
9E
9E
90
90
90
90
90
90
ENDCHAR
STARTCHAR 2555
ENCODING 9557
SWIDTH 720 0
DWIDTH 10 0
BBX 6 10 0 -4
BITMAP
FC
0C
FC
FC
0C
0C
0C
0C
0C
0C
ENDCHAR
STARTCHAR 2556
ENCODING 9558
SWIDTH 720 0
DWIDTH 10 0
BBX 7 9 0 -4
BITMAP
FE
12
12
12
12
12
12
12
12
ENDCHAR
STARTCHAR 2557
ENCODING 9559
SWIDTH 720 0
DWIDTH 10 0
BBX 7 10 0 -4
BITMAP
FE
02
F2
F2
12
12
12
12
12
12
ENDCHAR
STARTCHAR 2558
ENCODING 9560
SWIDTH 720 0
DWIDTH 10 0
BBX 6 11 4 2
BITMAP
C0
C0
C0
C0
C0
C0
C0
FC
C0
FC
FC
ENDCHAR
STARTCHAR 2559
ENCODING 9561
SWIDTH 720 0
DWIDTH 10 0
BBX 7 9 3 4
BITMAP
90
90
90
90
90
90
90
90
FE
ENDCHAR
STARTCHAR 255A
ENCODING 9562
SWIDTH 720 0
DWIDTH 10 0
BBX 7 11 3 2
BITMAP
90
90
90
90
90
90
90
9E
80
FE
FE
ENDCHAR
STARTCHAR 255B
ENCODING 9563
SWIDTH 720 0
DWIDTH 10 0
BBX 6 11 0 2
BITMAP
0C
0C
0C
0C
0C
0C
0C
FC
0C
FC
FC
ENDCHAR
STARTCHAR 255C
ENCODING 9564
SWIDTH 720 0
DWIDTH 10 0
BBX 7 9 0 4
BITMAP
12
12
12
12
12
12
12
12
FE
ENDCHAR
STARTCHAR 255D
ENCODING 9565
SWIDTH 720 0
DWIDTH 10 0
BBX 7 11 0 2
BITMAP
12
12
12
12
12
12
12
F2
02
FE
FE
ENDCHAR
STARTCHAR 255E
ENCODING 9566
SWIDTH 720 0
DWIDTH 10 0
BBX 6 17 4 -4
BITMAP
C0
C0
C0
C0
C0
C0
C0
FC
C0
FC
FC
C0
C0
C0
C0
C0
C0
ENDCHAR
STARTCHAR 255F
ENCODING 9567
SWIDTH 720 0
DWIDTH 10 0
BBX 7 17 3 -4
BITMAP
90
90
90
90
90
90
90
90
9E
90
90
90
90
90
90
90
90
ENDCHAR
STARTCHAR 2560
ENCODING 9568
SWIDTH 720 0
DWIDTH 10 0
BBX 7 17 3 -4
BITMAP
90
90
90
90
90
90
90
9E
80
9E
9E
90
90
90
90
90
90
ENDCHAR
STARTCHAR 2561
ENCODING 9569
SWIDTH 720 0
DWIDTH 10 0
BBX 6 17 0 -4
BITMAP
0C
0C
0C
0C
0C
0C
0C
FC
0C
FC
FC
0C
0C
0C
0C
0C
0C
ENDCHAR
STARTCHAR 2562
ENCODING 9570
SWIDTH 720 0
DWIDTH 10 0
BBX 7 17 0 -4
BITMAP
12
12
12
12
12
12
12
12
F2
12
12
12
12
12
12
12
12
ENDCHAR
STARTCHAR 2563
ENCODING 9571
SWIDTH 720 0
DWIDTH 10 0
BBX 7 17 0 -4
BITMAP
12
12
12
12
12
12
12
F2
02
F2
F2
12
12
12
12
12
12
ENDCHAR
STARTCHAR 2564
ENCODING 9572
SWIDTH 720 0
DWIDTH 10 0
BBX 10 10 0 -4
BITMAP
FFC0
0000
FFC0
FFC0
0C00
0C00
0C00
0C00
0C00
0C00
ENDCHAR
STARTCHAR 2565
ENCODING 9573
SWIDTH 720 0
DWIDTH 10 0
BBX 10 9 0 -4
BITMAP
FFC0
1200
1200
1200
1200
1200
1200
1200
1200
ENDCHAR
STARTCHAR 2566
ENCODING 9574
SWIDTH 720 0
DWIDTH 10 0
BBX 10 10 0 -4
BITMAP
FFC0
0000
F3C0
F3C0
1200
1200
1200
1200
1200
1200
ENDCHAR
STARTCHAR 2567
ENCODING 9575
SWIDTH 720 0
DWIDTH 10 0
BBX 10 11 0 2
BITMAP
0C00
0C00
0C00
0C00
0C00
0C00
0C00
FFC0
0000
FFC0
FFC0
ENDCHAR
STARTCHAR 2568
ENCODING 9576
SWIDTH 720 0
DWIDTH 10 0
BBX 10 9 0 4
BITMAP
1200
1200
1200
1200
1200
1200
1200
1200
FFC0
ENDCHAR
STARTCHAR 2569
ENCODING 9577
SWIDTH 720 0
DWIDTH 10 0
BBX 10 11 0 2
BITMAP
1200
1200
1200
1200
1200
1200
1200
F3C0
0000
FFC0
FFC0
ENDCHAR
STARTCHAR 256A
ENCODING 9578
SWIDTH 720 0
DWIDTH 10 0
BBX 10 17 0 -4
BITMAP
0C00
0C00
0C00
0C00
0C00
0C00
0C00
FFC0
0C00
FFC0
FFC0
0C00
0C00
0C00
0C00
0C00
0C00
ENDCHAR
STARTCHAR 256B
ENCODING 9579
SWIDTH 720 0
DWIDTH 10 0
BBX 10 17 0 -4
BITMAP
1200
1200
1200
1200
1200
1200
1200
1200
FFC0
1200
1200
1200
1200
1200
1200
1200
1200
ENDCHAR
STARTCHAR 256C
ENCODING 9580
SWIDTH 720 0
DWIDTH 10 0
BBX 10 17 0 -4
BITMAP
1200
1200
1200
1200
1200
1200
1200
F3C0
0000
F3C0
F3C0
1200
1200
1200
1200
1200
1200
ENDCHAR
STARTCHAR 2580
ENCODING 9600
SWIDTH 720 0
DWIDTH 10 0
BBX 10 9 0 4
BITMAP
FFC0
FFC0
FFC0
FFC0
FFC0
FFC0
FFC0
FFC0
FFC0
ENDCHAR
STARTCHAR 2584
ENCODING 9604
SWIDTH 720 0
DWIDTH 10 0
BBX 10 8 0 -4
BITMAP
FFC0
FFC0
FFC0
FFC0
FFC0
FFC0
FFC0
FFC0
ENDCHAR
STARTCHAR 2588
ENCODING 9608
SWIDTH 720 0
DWIDTH 10 0
BBX 10 17 0 -4
BITMAP
FFC0
FFC0
FFC0
FFC0
FFC0
FFC0
FFC0
FFC0
FFC0
FFC0
FFC0
FFC0
FFC0
FFC0
FFC0
FFC0
FFC0
ENDCHAR
STARTCHAR 258C
ENCODING 9612
SWIDTH 720 0
DWIDTH 10 0
BBX 5 17 0 -4
BITMAP
F8
F8
F8
F8
F8
F8
F8
F8
F8
F8
F8
F8
F8
F8
F8
F8
F8
ENDCHAR
STARTCHAR 2590
ENCODING 9616
SWIDTH 720 0
DWIDTH 10 0
BBX 5 17 5 -4
BITMAP
F8
F8
F8
F8
F8
F8
F8
F8
F8
F8
F8
F8
F8
F8
F8
F8
F8
ENDCHAR
STARTCHAR 2591
ENCODING 9617
SWIDTH 720 0
DWIDTH 10 0
BBX 9 15 1 -2
BITMAP
9000
0000
4480
0000
9000
4480
0000
9000
0000
4480
9000
0000
4480
0000
9000
ENDCHAR
STARTCHAR 2592
ENCODING 9618
SWIDTH 720 0
DWIDTH 10 0
BBX 10 15 0 -2
BITMAP
6A40
0000
9580
0000
6A40
9580
0000
6A40
0000
9580
6A40
0000
9580
0000
6A40
ENDCHAR
STARTCHAR 2593
ENCODING 9619
SWIDTH 720 0
DWIDTH 10 0
BBX 10 17 0 -4
BITMAP
4AC0
FFC0
B580
FFC0
6AC0
B580
FFC0
6AC0
FFC0
B580
6AC0
FFC0
B580
FFC0
6AC0
FFC0
FFC0
ENDCHAR
STARTCHAR 25A0
ENCODING 9632
SWIDTH 576 0
DWIDTH 8 0
BBX 6 6 1 0
BITMAP
FC
FC
FC
FC
FC
FC
ENDCHAR
STARTCHAR 25A1
ENCODING 9633
SWIDTH 576 0
DWIDTH 8 0
BBX 6 6 1 0
BITMAP
FC
84
84
84
84
FC
ENDCHAR
STARTCHAR 25AA
ENCODING 9642
SWIDTH 360 0
DWIDTH 5 0
BBX 3 3 1 3
BITMAP
E0
E0
E0
ENDCHAR
STARTCHAR 25AB
ENCODING 9643
SWIDTH 360 0
DWIDTH 5 0
BBX 3 3 1 3
BITMAP
E0
A0
E0
ENDCHAR
STARTCHAR 25AC
ENCODING 9644
SWIDTH 1008 0
DWIDTH 14 0
BBX 14 3 0 2
BITMAP
FFFC
FFFC
FFFC
ENDCHAR
STARTCHAR 25B2
ENCODING 9650
SWIDTH 1008 0
DWIDTH 14 0
BBX 10 9 2 0
BITMAP
0C00
0C00
1E00
1E00
3F00
3F00
7F80
7F80
FFC0
ENDCHAR
STARTCHAR 25BA
ENCODING 9658
SWIDTH 1008 0
DWIDTH 14 0
BBX 9 9 2 0
BITMAP
C000
F000
FC00
FF00
FF80
FE00
F800
E000
8000
ENDCHAR
STARTCHAR 25BC
ENCODING 9660
SWIDTH 1008 0
DWIDTH 14 0
BBX 8 8 3 1
BITMAP
FF
FF
7E
7E
3C
3C
18
18
ENDCHAR
STARTCHAR 25C4
ENCODING 9668
SWIDTH 1008 0
DWIDTH 14 0
BBX 10 9 2 0
BITMAP
00C0
03C0
0FC0
3FC0
FFC0
3FC0
0FC0
03C0
00C0
ENDCHAR
STARTCHAR 25CA
ENCODING 9674
SWIDTH 504 0
DWIDTH 7 0
BBX 7 10 0 0
BITMAP
10
28
44
44
82
82
44
44
28
10
ENDCHAR
STARTCHAR 25CB
ENCODING 9675
SWIDTH 576 0
DWIDTH 8 0
BBX 6 7 1 0
BITMAP
38
C4
84
84
84
68
10
ENDCHAR
STARTCHAR 25CF
ENCODING 9679
SWIDTH 576 0
DWIDTH 8 0
BBX 6 6 1 1
BITMAP
78
FC
FC
FC
FC
78
ENDCHAR
STARTCHAR 25D8
ENCODING 9688
SWIDTH 576 0
DWIDTH 8 0
BBX 7 7 1 0
BITMAP
FE
FE
CE
C6
CE
FE
FE
ENDCHAR
STARTCHAR 25D9
ENCODING 9689
SWIDTH 576 0
DWIDTH 8 0
BBX 8 8 0 0
BITMAP
FF
E3
FD
BF
BF
FD
CB
FF
ENDCHAR
STARTCHAR 25E6
ENCODING 9702
SWIDTH 360 0
DWIDTH 5 0
BBX 3 3 1 3
BITMAP
E0
A0
E0
ENDCHAR
STARTCHAR 263A
ENCODING 9786
SWIDTH 1008 0
DWIDTH 14 0
BBX 10 9 2 -1
BITMAP
1E00
2100
4080
5280
8040
4080
4A80
2500
1E00
ENDCHAR
STARTCHAR 263B
ENCODING 9787
SWIDTH 1080 0
DWIDTH 15 0
BBX 9 9 3 -1
BITMAP
3C00
7F00
FF00
D980
FF80
FF80
EB00
7E00
1C00
ENDCHAR
STARTCHAR 263C
ENCODING 9788
SWIDTH 936 0
DWIDTH 13 0
BBX 11 13 1 -2
BITMAP
0400
0400
4E40
3180
4080
4080
C0E0
4080
2080
3180
4E40
0400
0400
ENDCHAR
STARTCHAR 2640
ENCODING 9792
SWIDTH 576 0
DWIDTH 8 0
BBX 7 11 0 -1
BITMAP
38
44
82
82
82
44
38
10
10
7E
10
ENDCHAR
STARTCHAR 2642
ENCODING 9794
SWIDTH 648 0
DWIDTH 9 0
BBX 9 12 0 -3
BITMAP
0300
0D00
0300
0480
0400
3800
4400
8200
8200
8200
6400
1800
ENDCHAR
STARTCHAR 2660
ENCODING 9824
SWIDTH 504 0
DWIDTH 7 0
BBX 7 8 0 0
BITMAP
10
18
3C
7E
FE
6E
10
38
ENDCHAR
STARTCHAR 2663
ENCODING 9827
SWIDTH 648 0
DWIDTH 9 0
BBX 9 8 0 0
BITMAP
1C00
1E00
7F00
7F80
FF80
7F00
0800
1C00
ENDCHAR
STARTCHAR 2665
ENCODING 9829
SWIDTH 576 0
DWIDTH 8 0
BBX 8 7 0 1
BITMAP
7F
FF
7F
7E
3C
1C
18
ENDCHAR
STARTCHAR 2666
ENCODING 9830
SWIDTH 504 0
DWIDTH 7 0
BBX 5 8 1 0
BITMAP
20
70
78
F8
F8
70
70
20
ENDCHAR
STARTCHAR 266A
ENCODING 9834
SWIDTH 792 0
DWIDTH 11 0
BBX 11 14 0 -3
BITMAP
0200
0300
0380
02C0
0220
0200
0200
0200
0200
3A00
7E00
FE00
FE00
7C00
ENDCHAR
STARTCHAR 266B
ENCODING 9835
SWIDTH 1008 0
DWIDTH 14 0
BBX 10 13 2 -3
BITMAP
00C0
07C0
0F40
0840
1040
1040
1040
1040
13C0
73C0
F3C0
F000
7000
ENDCHAR
STARTCHAR F000
ENCODING 61440
SWIDTH 792 0
DWIDTH 11 0
BBX 1 1 0 0
BITMAP
00
ENDCHAR
STARTCHAR F001
ENCODING 61441
SWIDTH 648 0
DWIDTH 9 0
BBX 7 10 0 0
BITMAP
38
44
40
FC
44
44
44
44
44
EE
ENDCHAR
STARTCHAR F002
ENCODING 61442
SWIDTH 648 0
DWIDTH 9 0
BBX 7 10 0 0
BITMAP
3C
44
44
FC
44
44
44
44
44
EE
ENDCHAR
STARTCHAR F003
ENCODING 61443
SWIDTH 360 0
DWIDTH 5 0
BBX 5 6 0 4
BITMAP
30
50
90
F8
10
10
ENDCHAR
STARTCHAR F004
ENCODING 61444
SWIDTH 288 0
DWIDTH 4 0
BBX 2 4 1 -5
BITMAP
C0
40
40
80
ENDCHAR
STARTCHAR F005
ENCODING 61445
SWIDTH 360 0
DWIDTH 5 0
BBX 2 2 1 -3
BITMAP
C0
C0
ENDCHAR
STARTCHAR F006
ENCODING 61446
SWIDTH 576 0
DWIDTH 8 0
BBX 7 6 1 0
BITMAP
7E
A8
28
28
6A
44
ENDCHAR
STARTCHAR F007
ENCODING 61447
SWIDTH 360 0
DWIDTH 5 0
BBX 4 5 0 5
BITMAP
F0
80
E0
90
60
ENDCHAR
STARTCHAR F008
ENCODING 61448
SWIDTH 360 0
DWIDTH 5 0
BBX 4 5 1 5
BITMAP
F0
A0
20
40
40
ENDCHAR
STARTCHAR F009
ENCODING 61449
SWIDTH 360 0
DWIDTH 5 0
BBX 4 5 0 5
BITMAP
60
90
60
90
60
ENDCHAR
STARTCHAR F100
ENCODING 61696
SWIDTH 648 0
DWIDTH 9 0
BBX 8 10 1 0
BITMAP
FF
41
41
40
40
40
40
40
40
E0
ENDCHAR
STARTCHAR F101
ENCODING 61697
SWIDTH 792 0
DWIDTH 11 0
BBX 9 10 1 0
BITMAP
1C00
6300
4100
A280
BE80
A280
8080
4100
6300
1C00
ENDCHAR
STARTCHAR F102
ENCODING 61698
SWIDTH 792 0
DWIDTH 11 0
BBX 9 10 1 0
BITMAP
1C00
0800
3E00
4900
8880
8880
C900
3E00
0800
1C00
ENDCHAR
STARTCHAR F103
ENCODING 61699
SWIDTH 576 0
DWIDTH 8 0
BBX 7 7 1 0
BITMAP
74
D4
8C
88
88
9A
76
ENDCHAR
STARTCHAR F104
ENCODING 61700
SWIDTH 504 0
DWIDTH 7 0
BBX 5 10 1 0
BITMAP
78
48
40
20
50
88
88
88
C8
70
ENDCHAR
STARTCHAR F105
ENCODING 61701
SWIDTH 432 0
DWIDTH 6 0
BBX 4 7 1 0
BITMAP
70
90
80
60
80
90
70
ENDCHAR
STARTCHAR F106
ENCODING 61702
SWIDTH 576 0
DWIDTH 8 0
BBX 7 7 1 0
BITMAP
7E
C8
84
84
84
4C
38
ENDCHAR
STARTCHAR F107
ENCODING 61703
SWIDTH 432 0
DWIDTH 6 0
BBX 7 7 -1 0
BITMAP
7C
90
10
10
10
12
0C
ENDCHAR
STARTCHAR F108
ENCODING 61704
SWIDTH 576 0
DWIDTH 8 0
BBX 6 10 1 -3
BITMAP
58
94
94
94
94
54
38
10
10
10
ENDCHAR
STARTCHAR FB01
ENCODING 64257
SWIDTH 648 0
DWIDTH 9 0
BBX 7 10 0 0
BITMAP
38
44
40
FC
44
44
44
44
44
EE
ENDCHAR
STARTCHAR FB02
ENCODING 64258
SWIDTH 648 0
DWIDTH 9 0
BBX 7 10 0 0
BITMAP
3C
44
44
FC
44
44
44
44
44
EE
ENDCHAR
ENDFONT
